<?xml version="1.0" standalone="no"?>
<!DOCTYPE svg PUBLIC "-//W3C//DTD SVG 1.1//EN" "http://www.w3.org/Graphics/SVG/1.1/DTD/svg11.dtd" >
<svg xmlns="http://www.w3.org/2000/svg" xmlns:xlink="http://www.w3.org/1999/xlink" version="1.1">
<metadata>
Created by FontForge 20170731 at Fri Apr 26 10:12:20 2019
 By Aleksey,,,
Copyright (c) 2015, Impallari Type (www.impallari.com)
</metadata>
<defs>
<font id="LibreFranklin-SemiBold" horiz-adv-x="0" >
  <font-face 
    font-family="Libre Franklin SemiBold"
    font-weight="600"
    font-stretch="normal"
    units-per-em="1000"
    panose-1="0 0 7 0 0 0 0 0 0 0"
    ascent="800"
    descent="-200"
    bbox="-356 -165 720 963.889"
    underline-thickness="50"
    underline-position="-150"
    unicode-range="U+0020-20AB"
  />
<missing-glyph horiz-adv-x="666" 
d="M582 841.5q5 -5.5 5 -15.5v-962q0 -16 -8 -22.5t-25 -6.5h-448q-15 0 -21 6t-6 19v964q0 11 5 17t14 6h471q8 0 13 -5.5zM531 792q-4 5 -11 5h-353l368 -855v837q0 8 -4 13zM136 -110q5 -5 18 -5h344l-367 849v-828q0 -11 5 -16z" />
    <glyph glyph-name=".notdef" horiz-adv-x="666" 
d="M582 841.5q5 -5.5 5 -15.5v-962q0 -16 -8 -22.5t-25 -6.5h-448q-15 0 -21 6t-6 19v964q0 11 5 17t14 6h471q8 0 13 -5.5zM531 792q-4 5 -11 5h-353l368 -855v837q0 8 -4 13zM136 -110q5 -5 18 -5h344l-367 849v-828q0 -11 5 -16z" />
    <glyph glyph-name="uni0000" 
 />
    <glyph glyph-name="nonmarkingreturn" horiz-adv-x="212" 
 />
    <glyph glyph-name="space" unicode=" " horiz-adv-x="209" 
 />
    <glyph glyph-name="A" horiz-adv-x="756" 
d="M37 14q0 3 2 11l252 699q4 10 9 14t15 4h125q22 0 28 -20l250 -698q2 -6 2 -9q0 -6 -3.5 -10.5t-9.5 -4.5h-121q-14 0 -18 13l-58 162q-2 5 -4 7.5t-8 2.5h-261q-9 0 -12 -9l-60 -164q-3 -12 -18 -12h-97q-13 0 -13 14zM462 298q9 0 9 8q0 5 -1 8l-96 267q-3 7 -7 7
t-7 -8l-97 -266q-2 -6 -2 -9q0 -7 10 -7h191z" />
    <glyph glyph-name="E" horiz-adv-x="645" 
d="M94 742h485q13 0 13 -15v-76q0 -19 -18 -19h-330q-17 0 -17 -14v-175q0 -15 14 -15h228q15 0 15 -15v-81q0 -12 -14 -12h-230q-13 0 -13 -12v-186q0 -7 2.5 -9.5t8.5 -2.5h350q9 0 12.5 -3t3.5 -11v-81q0 -6 -4 -10.5t-13 -4.5h-489q-10 0 -14.5 4t-4.5 14v707
q0 17 15 17z" />
    <glyph glyph-name="I" horiz-adv-x="306" 
d="M213 742q14 0 14 -16v-704q0 -12 -5.5 -17t-18.5 -5h-104q-12 0 -16 4t-4 14v707q0 17 15 17h119z" />
    <glyph glyph-name="O" horiz-adv-x="770" 
d="M208 35q-75 45 -115.5 130.5t-40.5 202.5q0 119 41 205.5t116 132.5t177 46q101 0 176 -46t116 -132.5t41 -204.5q0 -117 -40.5 -202.5t-115.5 -131t-177 -45.5q-103 0 -178 45zM521 161q43 65 43 206q0 144 -43.5 212t-134.5 68t-135.5 -68t-44.5 -212q0 -141 44 -206
t137 -65q91 0 134 65z" />
    <glyph glyph-name="U" horiz-adv-x="717" 
d="M572.5 55q-73.5 -65 -214.5 -65q-153 0 -220.5 72.5t-67.5 220.5v441q0 9 4 13.5t10 4.5h120q14 0 14 -16v-465q0 -84 38 -123.5t113 -39.5q155 0 155 166v461q0 17 14 17h95q13 0 13 -16v-461q0 -145 -73.5 -210z" />
    <glyph glyph-name="Y" horiz-adv-x="715" 
d="M680 733q0 -4 -3 -9l-236 -390q-5 -7 -6 -14.5t-1 -30.5v-267q0 -12 -5.5 -17t-19.5 -5h-103q-11 0 -15.5 4.5t-4.5 14.5v272q0 11 -2 17.5t-8 16.5l-238 396q-4 5 -4 10q0 11 17 11h123q11 0 16 -3t11 -13l161 -281q6 -11 10 -11q3 0 10 10l159 282q5 10 10 13t16 3h100
q13 0 13 -9z" />
    <glyph glyph-name="a" horiz-adv-x="558" 
d="M196 -10q-76 0 -120.5 40.5t-44.5 105.5q0 83 74 132t207 54l50 3q16 2 16 15v23q0 44 -26.5 68.5t-72.5 24.5q-76 0 -117 -66q-3 -4 -5.5 -6.5t-6.5 -2.5q-5 0 -8 1l-84 21q-8 2 -8 9q0 5 4 13q26 56 85.5 85.5t145.5 29.5q112 0 164.5 -44t52.5 -124v-352
q0 -11 -3.5 -15.5t-13.5 -4.5h-85q-9 0 -13 6t-6 18l-1 30q-1 9 -7 9q-3 0 -13 -8q-70 -65 -164 -65zM374.5 255q-3.5 4 -11.5 4l-41 -3q-70 -5 -116.5 -31.5t-46.5 -72.5q0 -34 24.5 -54t65.5 -20q52 0 91 32q38 30 38 61v71q0 9 -3.5 13z" />
    <glyph glyph-name="e" horiz-adv-x="584" 
d="M190 150.5q19 -32.5 52.5 -51t73.5 -18.5q41 0 74.5 17.5t63.5 54.5q5 5 8 5t9 -3l61 -27q7 -3 7 -9q0 -3 -4 -9q-45 -65 -99.5 -92.5t-134.5 -27.5q-76 0 -136.5 34t-94.5 95t-34 139q0 84 35 148t95 99t133 35q75 0 132.5 -33t89 -95.5t31.5 -148.5v-4q0 -10 -3 -14
t-13 -5h-354q-11 0 -11 -16q0 -41 19 -73.5zM408 314q10 0 13.5 2.5t3.5 11.5q0 32 -14 62t-41.5 49t-65.5 19q-59 0 -95.5 -41.5t-35.5 -102.5h235z" />
    <glyph glyph-name="i" horiz-adv-x="256" 
d="M195 628q0 -12 -5.5 -17.5t-18.5 -5.5h-91q-11 0 -15 5t-4 15v98q0 19 16 19h103q7 0 11 -4.5t4 -12.5v-97zM193 22q0 -12 -5.5 -17t-18.5 -5h-87q-11 0 -15 4t-4 14v495q0 17 15 17h101q14 0 14 -16v-492z" />
    <glyph glyph-name="o" horiz-adv-x="599" 
d="M162 24.5q-60 34.5 -93 96.5t-33 141q0 81 34 144.5t94 98.5t136 35q77 0 137 -35.5t93 -98.5t33 -143q0 -79 -33.5 -141t-93.5 -97t-137 -35t-137 34.5zM397.5 127q33.5 48 33.5 138q0 91 -34 140t-97 49t-97.5 -49t-34.5 -140q0 -90 34.5 -138t97.5 -48q64 0 97.5 48z
" />
    <glyph glyph-name="u" horiz-adv-x="588" 
d="M395 154v356q0 20 23 20h90q18 0 18 -19l-2 -495q0 -16 -14 -16h-98q-14 0 -14 15v53q0 5 -3 6t-7 -3q-46 -44 -87.5 -62.5t-88.5 -18.5q-68 0 -111.5 43t-43.5 115v361q0 21 21 21h92q9 0 13 -4.5t4 -14.5v-341q0 -39 22 -62t59 -23q61 0 127 69z" />
    <glyph glyph-name="y" horiz-adv-x="554" 
d="M58 -162q-13 3 -13 14v64q0 15 29 15h66q32 0 55 27t23 57q0 10 -3 19l-192 474q-1 2 -1 7q0 6 4.5 10.5t11.5 4.5h104q7 0 12.5 -4t7.5 -11l124 -329q3 -9 8 -9t9 11l123 328q7 14 19 14h73q8 0 11.5 -6.5t0.5 -13.5l-210 -526q-25 -61 -53.5 -93t-66 -44t-95.5 -12
q-34 0 -47 3z" />
    <glyph glyph-name="Abreve" unicode="&#x102;" horiz-adv-x="756" 
d="M37 0zM37 14q0 3 2 11l252 699q4 10 9 14t15 4h125q22 0 28 -20l250 -698q2 -6 2 -9q0 -6 -3.5 -10.5t-9.5 -4.5h-121q-14 0 -18 13l-58 162q-2 5 -4 7.5t-8 2.5h-261q-9 0 -12 -9l-60 -164q-3 -12 -18 -12h-97q-13 0 -13 14zM462 298q9 0 9 8q0 5 -1 8l-96 267
q-3 7 -7 7t-7 -8l-97 -266q-2 -6 -2 -9q0 -7 10 -7h191zM541.5 950.5q2.5 -3.5 0.5 -10.5q-15 -49 -60.5 -79.5t-107.5 -30.5t-106.5 30t-59.5 82q-1 1 -1 4q0 8 9 8h58q7 0 10.5 -2t8.5 -9q32 -45 81 -45q26 0 48.5 13.5t34.5 32.5q3 6 6.5 8t8.5 2h59q8 0 10.5 -3.5z" />
    <glyph glyph-name="abreve" unicode="&#x103;" horiz-adv-x="558" 
d="M31 0zM196 -10q-76 0 -120.5 40.5t-44.5 105.5q0 83 74 132t207 54l50 3q16 2 16 15v23q0 44 -26.5 68.5t-72.5 24.5q-76 0 -117 -66q-3 -4 -5.5 -6.5t-6.5 -2.5q-5 0 -8 1l-84 21q-8 2 -8 9q0 5 4 13q26 56 85.5 85.5t145.5 29.5q112 0 164.5 -44t52.5 -124v-352
q0 -11 -3.5 -15.5t-13.5 -4.5h-85q-9 0 -13 6t-6 18l-1 30q-1 9 -7 9q-3 0 -13 -8q-70 -65 -164 -65zM374.5 255q-3.5 4 -11.5 4l-41 -3q-70 -5 -116.5 -31.5t-46.5 -72.5q0 -34 24.5 -54t65.5 -20q52 0 91 32q38 30 38 61v71q0 9 -3.5 13zM449.5 738.5q2.5 -3.5 0.5 -10.5
q-15 -49 -60.5 -79.5t-107.5 -30.5t-106.5 30t-59.5 82q-1 1 -1 4q0 8 9 8h58q7 0 10.5 -2t8.5 -9q32 -45 81 -45q26 0 48.5 13.5t34.5 32.5q3 6 6.5 8t8.5 2h59q8 0 10.5 -3.5z" />
    <glyph glyph-name="gravecomb" 
d="M-260.5 750.5q4.5 2.5 9.5 0.5l234 -98q11 -5 5 -18l-10 -31q-4 -10 -13 -10q-5 0 -8 1l-231 65q-15 5 -15 15l2 8l20 60q2 5 6.5 7.5z" />
    <glyph glyph-name="tildecomb" 
d="M-119 637q-32 0 -75 15q-4 1 -24.5 7t-41.5 6q-20 0 -33.5 -5.5t-30.5 -17.5q-8 -4 -9 -4q-6 0 -9 10l-13 38q-1 3 -1 8q0 6 7 13q20 17 39 25.5t46 8.5q30 0 78 -16q17 -5 34.5 -9.5t32.5 -4.5q32 0 65 23q6 4 9 4q7 0 10 -11l12 -44l1 -5q0 -9 -11 -16q-38 -25 -86 -25
z" />
    <glyph glyph-name="uni0306" 
d="M-13.5 738.5q2.5 -3.5 0.5 -10.5q-15 -49 -60.5 -79.5t-107.5 -30.5t-106.5 30t-59.5 82q-1 1 -1 4q0 8 9 8h58q7 0 10.5 -2t8.5 -9q32 -45 81 -45q26 0 48.5 13.5t34.5 32.5q3 6 6.5 8t8.5 2h59q8 0 10.5 -3.5z" />
    <glyph glyph-name="dotbelowcomb" 
d="M-10 -147q0 -10 -4.5 -14t-14.5 -4h-71q-9 0 -12.5 3.5t-3.5 11.5v86q0 8 2.5 11.5t8.5 3.5h84q11 0 11 -13v-85z" />
    <glyph glyph-name="uni1EB8" unicode="&#x1eb8;" horiz-adv-x="645" 
d="M79 0zM94 742h485q13 0 13 -15v-76q0 -19 -18 -19h-330q-17 0 -17 -14v-175q0 -15 14 -15h228q15 0 15 -15v-81q0 -12 -14 -12h-230q-13 0 -13 -12v-186q0 -7 2.5 -9.5t8.5 -2.5h350q9 0 12.5 -3t3.5 -11v-81q0 -6 -4 -10.5t-13 -4.5h-489q-10 0 -14.5 4t-4.5 14v707
q0 17 15 17zM404 -147q0 -10 -4.5 -14t-14.5 -4h-71q-9 0 -12.5 3.5t-3.5 11.5v86q0 8 2.5 11.5t8.5 3.5h84q11 0 11 -13v-85z" />
    <glyph glyph-name="uni1EB9" unicode="&#x1eb9;" horiz-adv-x="584" 
d="M36 0zM190 150.5q19 -32.5 52.5 -51t73.5 -18.5q41 0 74.5 17.5t63.5 54.5q5 5 8 5t9 -3l61 -27q7 -3 7 -9q0 -3 -4 -9q-45 -65 -99.5 -92.5t-134.5 -27.5q-76 0 -136.5 34t-94.5 95t-34 139q0 84 35 148t95 99t133 35q75 0 132.5 -33t89 -95.5t31.5 -148.5v-4
q0 -10 -3 -14t-13 -5h-354q-11 0 -11 -16q0 -41 19 -73.5zM408 314q10 0 13.5 2.5t3.5 11.5q0 32 -14 62t-41.5 49t-65.5 19q-59 0 -95.5 -41.5t-35.5 -102.5h235zM355 -147q0 -10 -4.5 -14t-14.5 -4h-71q-9 0 -12.5 3.5t-3.5 11.5v86q0 8 2.5 11.5t8.5 3.5h84q11 0 11 -13
v-85z" />
    <glyph glyph-name="uni1EBC" unicode="&#x1ebc;" horiz-adv-x="645" 
d="M79 0zM94 742h485q13 0 13 -15v-76q0 -19 -18 -19h-330q-17 0 -17 -14v-175q0 -15 14 -15h228q15 0 15 -15v-81q0 -12 -14 -12h-230q-13 0 -13 -12v-186q0 -7 2.5 -9.5t8.5 -2.5h350q9 0 12.5 -3t3.5 -11v-81q0 -6 -4 -10.5t-13 -4.5h-489q-10 0 -14.5 4t-4.5 14v707
q0 17 15 17zM412 849q-32 0 -75 15q-4 1 -24.5 7t-41.5 6q-20 0 -33.5 -5.5t-30.5 -17.5q-8 -4 -9 -4q-6 0 -9 10l-13 38q-1 3 -1 8q0 6 7 13q20 17 39 25.5t46 8.5q30 0 78 -16q17 -5 34.5 -9.5t32.5 -4.5q32 0 65 23q6 4 9 4q7 0 10 -11l12 -44l1 -5q0 -9 -11 -16
q-38 -25 -86 -25z" />
    <glyph glyph-name="uni1EBD" unicode="&#x1ebd;" horiz-adv-x="584" 
d="M36 0zM190 150.5q19 -32.5 52.5 -51t73.5 -18.5q41 0 74.5 17.5t63.5 54.5q5 5 8 5t9 -3l61 -27q7 -3 7 -9q0 -3 -4 -9q-45 -65 -99.5 -92.5t-134.5 -27.5q-76 0 -136.5 34t-94.5 95t-34 139q0 84 35 148t95 99t133 35q75 0 132.5 -33t89 -95.5t31.5 -148.5v-4
q0 -10 -3 -14t-13 -5h-354q-11 0 -11 -16q0 -41 19 -73.5zM408 314q10 0 13.5 2.5t3.5 11.5q0 32 -14 62t-41.5 49t-65.5 19q-59 0 -95.5 -41.5t-35.5 -102.5h235zM371 637q-32 0 -75 15q-4 1 -24.5 7t-41.5 6q-20 0 -33.5 -5.5t-30.5 -17.5q-8 -4 -9 -4q-6 0 -9 10l-13 38
q-1 3 -1 8q0 6 7 13q20 17 39 25.5t46 8.5q30 0 78 -16q17 -5 34.5 -9.5t32.5 -4.5q32 0 65 23q6 4 9 4q7 0 10 -11l12 -44l1 -5q0 -9 -11 -16q-38 -25 -86 -25z" />
    <glyph glyph-name="uni1ECA" unicode="&#x1eca;" horiz-adv-x="306" 
d="M79 0zM213 742q14 0 14 -16v-704q0 -12 -5.5 -17t-18.5 -5h-104q-12 0 -16 4t-4 14v707q0 17 15 17h119zM206 -147q0 -10 -4.5 -14t-14.5 -4h-71q-9 0 -12.5 3.5t-3.5 11.5v86q0 8 2.5 11.5t8.5 3.5h84q11 0 11 -13v-85z" />
    <glyph glyph-name="uni1ECB" unicode="&#x1ecb;" horiz-adv-x="256" 
d="M61 0zM195 628q0 -12 -5.5 -17.5t-18.5 -5.5h-91q-11 0 -15 5t-4 15v98q0 19 16 19h103q7 0 11 -4.5t4 -12.5v-97zM193 22q0 -12 -5.5 -17t-18.5 -5h-87q-11 0 -15 4t-4 14v495q0 17 15 17h101q14 0 14 -16v-492zM184 -147q0 -10 -4.5 -14t-14.5 -4h-71q-9 0 -12.5 3.5
t-3.5 11.5v86q0 8 2.5 11.5t8.5 3.5h84q11 0 11 -13v-85z" />
    <glyph glyph-name="uni1ECC" unicode="&#x1ecc;" horiz-adv-x="770" 
d="M52 0zM208 35q-75 45 -115.5 130.5t-40.5 202.5q0 119 41 205.5t116 132.5t177 46q101 0 176 -46t116 -132.5t41 -204.5q0 -117 -40.5 -202.5t-115.5 -131t-177 -45.5q-103 0 -178 45zM521 161q43 65 43 206q0 144 -43.5 212t-134.5 68t-135.5 -68t-44.5 -212
q0 -141 44 -206t137 -65q91 0 134 65zM440 -147q0 -10 -4.5 -14t-14.5 -4h-71q-9 0 -12.5 3.5t-3.5 11.5v86q0 8 2.5 11.5t8.5 3.5h84q11 0 11 -13v-85z" />
    <glyph glyph-name="uni1ECD" unicode="&#x1ecd;" horiz-adv-x="599" 
d="M36 0zM162 24.5q-60 34.5 -93 96.5t-33 141q0 81 34 144.5t94 98.5t136 35q77 0 137 -35.5t93 -98.5t33 -143q0 -79 -33.5 -141t-93.5 -97t-137 -35t-137 34.5zM397.5 127q33.5 48 33.5 138q0 91 -34 140t-97 49t-97.5 -49t-34.5 -140q0 -90 34.5 -138t97.5 -48
q64 0 97.5 48zM350 -147q0 -10 -4.5 -14t-14.5 -4h-71q-9 0 -12.5 3.5t-3.5 11.5v86q0 8 2.5 11.5t8.5 3.5h84q11 0 11 -13v-85z" />
    <glyph glyph-name="uni1EE4" unicode="&#x1ee4;" horiz-adv-x="717" 
d="M70 0zM572.5 55q-73.5 -65 -214.5 -65q-153 0 -220.5 72.5t-67.5 220.5v441q0 9 4 13.5t10 4.5h120q14 0 14 -16v-465q0 -84 38 -123.5t113 -39.5q155 0 155 166v461q0 17 14 17h95q13 0 13 -16v-461q0 -145 -73.5 -210zM410 -147q0 -10 -4.5 -14t-14.5 -4h-71
q-9 0 -12.5 3.5t-3.5 11.5v86q0 8 2.5 11.5t8.5 3.5h84q11 0 11 -13v-85z" />
    <glyph glyph-name="uni1EE5" unicode="&#x1ee5;" horiz-adv-x="588" 
d="M57 0zM395 154v356q0 20 23 20h90q18 0 18 -19l-2 -495q0 -16 -14 -16h-98q-14 0 -14 15v53q0 5 -3 6t-7 -3q-46 -44 -87.5 -62.5t-88.5 -18.5q-68 0 -111.5 43t-43.5 115v361q0 21 21 21h92q9 0 13 -4.5t4 -14.5v-341q0 -39 22 -62t59 -23q61 0 127 69zM339 -147
q0 -10 -4.5 -14t-14.5 -4h-71q-9 0 -12.5 3.5t-3.5 11.5v86q0 8 2.5 11.5t8.5 3.5h84q11 0 11 -13v-85z" />
    <glyph glyph-name="Ygrave" unicode="&#x1ef2;" horiz-adv-x="715" 
d="M34 0zM680 733q0 -4 -3 -9l-236 -390q-5 -7 -6 -14.5t-1 -30.5v-267q0 -12 -5.5 -17t-19.5 -5h-103q-11 0 -15.5 4.5t-4.5 14.5v272q0 11 -2 17.5t-8 16.5l-238 396q-4 5 -4 10q0 11 17 11h123q11 0 16 -3t11 -13l161 -281q6 -11 10 -11q3 0 10 10l159 282q5 10 10 13
t16 3h100q13 0 13 -9zM245.5 962.5q4.5 2.5 9.5 0.5l234 -98q11 -5 5 -18l-10 -31q-4 -10 -13 -10q-5 0 -8 1l-231 65q-15 5 -15 15l2 8l20 60q2 5 6.5 7.5z" />
    <glyph glyph-name="ygrave" unicode="&#x1ef3;" horiz-adv-x="554" 
d="M22 0zM58 -162q-13 3 -13 14v64q0 15 29 15h66q32 0 55 27t23 57q0 10 -3 19l-192 474q-1 2 -1 7q0 6 4.5 10.5t11.5 4.5h104q7 0 12.5 -4t7.5 -11l124 -329q3 -9 8 -9t9 11l123 328q7 14 19 14h73q8 0 11.5 -6.5t0.5 -13.5l-210 -526q-25 -61 -53.5 -93t-66 -44
t-95.5 -12q-34 0 -47 3zM176.5 750.5q4.5 2.5 9.5 0.5l234 -98q11 -5 5 -18l-10 -31q-4 -10 -13 -10q-5 0 -8 1l-231 65q-15 5 -15 15l2 8l20 60q2 5 6.5 7.5z" />
    <glyph glyph-name="uni1EF8" unicode="&#x1ef8;" horiz-adv-x="715" 
d="M34 0zM680 733q0 -4 -3 -9l-236 -390q-5 -7 -6 -14.5t-1 -30.5v-267q0 -12 -5.5 -17t-19.5 -5h-103q-11 0 -15.5 4.5t-4.5 14.5v272q0 11 -2 17.5t-8 16.5l-238 396q-4 5 -4 10q0 11 17 11h123q11 0 16 -3t11 -13l161 -281q6 -11 10 -11q3 0 10 10l159 282q5 10 10 13
t16 3h100q13 0 13 -9zM436 849q-32 0 -75 15q-4 1 -24.5 7t-41.5 6q-20 0 -33.5 -5.5t-30.5 -17.5q-8 -4 -9 -4q-6 0 -9 10l-13 38q-1 3 -1 8q0 6 7 13q20 17 39 25.5t46 8.5q30 0 78 -16q17 -5 34.5 -9.5t32.5 -4.5q32 0 65 23q6 4 9 4q7 0 10 -11l12 -44l1 -5
q0 -9 -11 -16q-38 -25 -86 -25z" />
    <glyph glyph-name="uni1EF9" unicode="&#x1ef9;" horiz-adv-x="554" 
d="M22 0zM58 -162q-13 3 -13 14v64q0 15 29 15h66q32 0 55 27t23 57q0 10 -3 19l-192 474q-1 2 -1 7q0 6 4.5 10.5t11.5 4.5h104q7 0 12.5 -4t7.5 -11l124 -329q3 -9 8 -9t9 11l123 328q7 14 19 14h73q8 0 11.5 -6.5t0.5 -13.5l-210 -526q-25 -61 -53.5 -93t-66 -44
t-95.5 -12q-34 0 -47 3zM367 637q-32 0 -75 15q-4 1 -24.5 7t-41.5 6q-20 0 -33.5 -5.5t-30.5 -17.5q-8 -4 -9 -4q-6 0 -9 10l-13 38q-1 3 -1 8q0 6 7 13q20 17 39 25.5t46 8.5q30 0 78 -16q17 -5 34.5 -9.5t32.5 -4.5q32 0 65 23q6 4 9 4q7 0 10 -11l12 -44l1 -5
q0 -9 -11 -16q-38 -25 -86 -25z" />
    <glyph glyph-name="dong" unicode="&#x20ab;" horiz-adv-x="520" 
d="M514 671v-35q0 -14 -18 -14h-45v-471q0 -8 -3.5 -12t-13.5 -4h-75q-16 0 -16 15v27q0 6 -3 7t-8 -3q-26 -25 -52.5 -39.5t-70.5 -14.5q-79 0 -127.5 57.5t-48.5 164.5q0 68 24.5 120.5t66.5 81t93 28.5q35 0 61 -11.5t49 -33.5q5 -4 9 -4q5 0 5 10v82h-108q-8 0 -11 3
t-3 10v35q0 12 10 12h112v47q0 13 12 13h86q12 0 12 -14v-46h53q10 0 10 -11zM339 461q-19 22 -40 32.5t-47 10.5q-48 0 -76.5 -38.5t-28.5 -114.5q0 -77 28 -114t75 -37q38 0 63.5 24t25.5 54v183zM453 54v-40q0 -8 -4 -11t-14 -3h-362q-8 0 -11 3t-3 10v40q0 12 10 12h374
q10 0 10 -11z" />
    <glyph glyph-name=".ttfautohint" horiz-adv-x="520" 
d="M0 0z" />
    </font>
</defs>
</svg>
