<?xml version="1.0" standalone="no"?>
<!DOCTYPE svg PUBLIC "-//W3C//DTD SVG 1.1//EN" "http://www.w3.org/Graphics/SVG/1.1/DTD/svg11.dtd" >
<svg xmlns="http://www.w3.org/2000/svg" xmlns:xlink="http://www.w3.org/1999/xlink" version="1.1">
<metadata>
Created by FontForge 20170731 at Fri Apr 26 10:12:22 2019
 By Aleksey,,,
Copyright (c) 2015, Impallari Type (www.impallari.com)
</metadata>
<defs>
<font id="LibreFranklin-MediumItalic" horiz-adv-x="0" >
  <font-face 
    font-family="Libre Franklin Medium"
    font-weight="500"
    font-style="italic"
    font-stretch="normal"
    units-per-em="1000"
    panose-1="0 0 6 0 0 0 0 0 0 0"
    ascent="800"
    descent="-200"
    bbox="-273 -165 728 963.455"
    underline-thickness="50"
    underline-position="-150"
    slope="-8"
    unicode-range="U+0020-20AB"
  />
<missing-glyph horiz-adv-x="685" 
d="M671 840q5 -7 4 -17l-135 -962q-2 -15 -9 -20.5t-25 -5.5h-448q-29 0 -26 28l135 964q2 11 7 15.5t13 4.5h471q8 0 13 -7zM618 788q0 9 -11 9h-357l249 -857l118 842zM88 -103q0 -7 4.5 -9.5t15.5 -2.5h347l-249 851l-117 -833z" />
    <glyph glyph-name=".notdef" horiz-adv-x="685" 
d="M671 840q5 -7 4 -17l-135 -962q-2 -15 -9 -20.5t-25 -5.5h-448q-29 0 -26 28l135 964q2 11 7 15.5t13 4.5h471q8 0 13 -7zM618 788q0 9 -11 9h-357l249 -857l118 842zM88 -103q0 -7 4.5 -9.5t15.5 -2.5h347l-249 851l-117 -833z" />
    <glyph glyph-name="uni0000" 
 />
    <glyph glyph-name="nonmarkingreturn" horiz-adv-x="212" 
 />
    <glyph glyph-name="space" unicode=" " horiz-adv-x="212" 
 />
    <glyph glyph-name="A" horiz-adv-x="741" 
d="M3 9q0 6 4 14l356 706q4 8 9.5 10.5t15.5 2.5h101q18 0 20 -20l155 -705l1 -5q0 -12 -12 -12h-95q-13 0 -15 14l-39 178q-1 4 -3 5.5t-7 1.5h-276q-6 0 -9 -2t-6 -8l-92 -181q-2 -5 -5 -6.5t-10 -1.5h-84q-9 0 -9 9zM476 293q12 0 10 15l-68 298q-1 9 -5 9t-9 -11
l-151 -297q-3 -6 -3 -10t7 -4h219z" />
    <glyph glyph-name="E" horiz-adv-x="636" 
d="M157 740q2 2 9 2h470q11 0 8 -16l-8 -62q-1 -7 -5 -10t-12 -3h-344q-7 0 -9.5 -2.5t-3.5 -9.5l-30 -210v-3q0 -4 1.5 -5.5t6.5 -1.5h250q6 0 8 -2.5t1 -9.5l-10 -69q-1 -5 -3.5 -7t-8.5 -2h-249q-6 0 -8.5 -2.5t-3.5 -9.5l-30 -216v-4q0 -6 7 -6h362q7 0 9 -2.5t1 -9.5
l-8 -69q-2 -6 -4.5 -8t-9.5 -2h-474q-10 0 -13.5 4.5t-1.5 14.5l100 711q1 8 3 10z" />
    <glyph glyph-name="I" horiz-adv-x="298" 
d="M263 742q13 0 10 -18l-99 -708q-1 -11 -4.5 -13.5t-15.5 -2.5h-86q-17 0 -14 19l100 711q1 8 3.5 10t8.5 2h97z" />
    <glyph glyph-name="O" horiz-adv-x="767" 
d="M141.5 67.5q-73.5 77.5 -73.5 219.5q0 50 6 87q17 118 67.5 203t129 130t177.5 45q132 0 206 -79t74 -223q0 -50 -6 -87q-16 -117 -66.5 -201t-129 -128t-177.5 -44q-134 0 -207.5 77.5zM516 150.5q60 71.5 82 222.5q7 52 7 99q0 98 -40 145t-120 47q-102 0 -163 -74.5
t-83 -227.5q-8 -56 -8 -94q0 -97 40.5 -143t122.5 -46q102 0 162 71.5z" />
    <glyph glyph-name="U" horiz-adv-x="713" 
d="M534.5 52.5q-77.5 -62.5 -212.5 -62.5q-127 0 -187 53.5t-60 160.5q0 33 6 72l64 453q1 8 3 10.5t9 2.5h94q7 0 11 -5t2 -13l-66 -475q-4 -32 -4 -44q0 -64 35 -94.5t105 -30.5q84 0 135 44t63 134l66 472q2 8 4 10t8 2h76q6 0 9.5 -5t2.5 -12l-66 -472
q-20 -138 -97.5 -200.5z" />
    <glyph glyph-name="Y" horiz-adv-x="694" 
d="M721 739.5q3 -2.5 3 -6.5q0 -3 -3 -8l-294 -395q-6 -8 -8.5 -15.5t-4.5 -24.5l-39 -273q-1 -10 -6 -13.5t-17 -3.5h-85q-9 0 -11.5 4t-1.5 13l40 278q1 5 1 12q0 9 -4 18l-184 401q-3 6 -3 9q0 7 13 7h97q9 0 13.5 -4t8.5 -13l132 -301q3 -9 8 -9q4 0 10 9l219 307
q5 7 9 9t15 2h84q5 0 8 -2.5z" />
    <glyph glyph-name="a" horiz-adv-x="552" 
d="M167 -10q-70 0 -110.5 34.5t-40.5 92.5q0 99 87.5 147t208.5 54l66 5q9 1 14.5 5.5t6.5 12.5l4 25q1 7 1 20q0 40 -25 61.5t-70 21.5q-88 0 -144 -76q-6 -8 -17 -4l-65 20q-7 2 -7 10q0 6 4 14q36 52 96 79.5t140 27.5q95 0 142.5 -38t47.5 -105q0 -10 -2 -30l-49 -353
q-1 -10 -4 -12t-11 -2h-67q-14 0 -14 19l4 41q0 7 -4 7t-12 -9q-75 -68 -180 -68zM386 252v5q0 5 -2 6.5t-8 0.5l-59 -4q-76 -6 -135 -34t-59 -93q0 -32 23 -50.5t64 -18.5q30 0 59 10.5t53 27.5q23 17 37 35.5t17 36.5z" />
    <glyph glyph-name="e" horiz-adv-x="582" 
d="M146 18.5q-52 28.5 -80 80t-28 118.5q0 83 37 157.5t104.5 120t154.5 45.5q100 0 157.5 -59t57.5 -164q0 -30 -4 -57q-1 -16 -21 -16h-366q-8 0 -11 -10.5t-3 -34.5q0 -61 37.5 -96.5t98.5 -35.5q92 0 158 78q4 4 9 4t9 -3l47 -24q8 -3 8 -11q0 -4 -3 -9
q-51 -60 -108.5 -86t-133.5 -26q-68 0 -120 28.5zM428 305q11 0 17 9.5t6 33.5q0 53 -32 87t-86 34q-46 0 -84 -23t-61.5 -60.5t-28.5 -80.5h269z" />
    <glyph glyph-name="i" horiz-adv-x="247" 
d="M231 633q-2 -11 -6 -14.5t-15 -3.5h-78q-16 0 -12 22l12 88q3 17 16 17h85q6 0 9 -5.5t1 -13.5zM141 16q-1 -11 -4.5 -13.5t-15.5 -2.5h-68q-10 0 -14.5 5t-2.5 14l70 499q1 8 3.5 10t9.5 2h82q6 0 9 -5t2 -12z" />
    <glyph glyph-name="o" horiz-adv-x="599" 
d="M144 18.5q-51 28.5 -78.5 80t-27.5 119.5q0 92 40 165.5t108 115t149 41.5q68 0 119 -29.5t78 -82t27 -121.5q0 -90 -39 -162.5t-106.5 -113.5t-149.5 -41q-69 0 -120 28.5zM363 96.5q42 31.5 66.5 90.5t24.5 138q0 67 -31.5 104.5t-89.5 37.5q-53 0 -95.5 -32
t-67.5 -91.5t-25 -138.5q0 -66 32 -103t91 -37q53 0 95 31.5z" />
    <glyph glyph-name="u" horiz-adv-x="583" 
d="M85 26q-39 36 -39 96q0 18 1 26l52 367q2 9 5 12t12 3h74q8 0 11.5 -5.5t2.5 -13.5l-49 -346q-1 -7 -1 -20q0 -75 76 -75q39 0 78 21t82 60l52 365q1 9 5 11.5t14 2.5h72q8 0 12.5 -5.5t3.5 -13.5l-72 -500q-2 -7 -4 -9t-8 -2h-78q-13 0 -12 12l8 54v2q0 4 -3 4t-8 -4
q-54 -43 -97.5 -60.5t-87.5 -17.5q-63 0 -102 36z" />
    <glyph glyph-name="y" horiz-adv-x="541" 
d="M-3 -162q-12 3 -11 13l7 50q2 14 34 14h62q24 0 46 16.5t36 41t14 45.5q0 6 -2 14l-125 476q-1 3 -1 9q0 13 13 13h90q13 0 14 -10l88 -360q2 -11 7 -11q6 0 12 13l184 353q7 15 19 15h61q8 0 8 -6q0 -3 -3 -9l-293 -545q-29 -54 -59.5 -83t-67.5 -40.5t-89 -11.5
q-32 0 -44 3z" />
    <glyph glyph-name="Abreve" unicode="&#x102;" horiz-adv-x="741" 
d="M3 0zM3 9q0 6 4 14l356 706q4 8 9.5 10.5t15.5 2.5h101q18 0 20 -20l155 -705l1 -5q0 -12 -12 -12h-95q-13 0 -15 14l-39 178q-1 4 -3 5.5t-7 1.5h-276q-6 0 -9 -2t-6 -8l-92 -181q-2 -5 -5 -6.5t-10 -1.5h-84q-9 0 -9 9zM476 293q12 0 10 15l-68 298q-1 9 -5 9t-9 -11
l-151 -297q-3 -6 -3 -10t7 -4h219zM624 944q0 -6 -2 -9q-20 -42 -65.5 -69.5t-103.5 -27.5q-62 0 -98.5 27t-44.5 75v4q0 10 11 10h50q5 0 8 -2.5t5 -6.5l3 -6q13 -18 28.5 -29t41.5 -11q30 0 53.5 13.5t37.5 33.5q7 8 17 8h48q11 0 11 -10z" />
    <glyph glyph-name="abreve" unicode="&#x103;" horiz-adv-x="552" 
d="M16 0zM167 -10q-70 0 -110.5 34.5t-40.5 92.5q0 99 87.5 147t208.5 54l66 5q9 1 14.5 5.5t6.5 12.5l4 25q1 7 1 20q0 40 -25 61.5t-70 21.5q-88 0 -144 -76q-6 -8 -17 -4l-65 20q-7 2 -7 10q0 6 4 14q36 52 96 79.5t140 27.5q95 0 142.5 -38t47.5 -105q0 -10 -2 -30
l-49 -353q-1 -10 -4 -12t-11 -2h-67q-14 0 -14 19l4 41q0 7 -4 7t-12 -9q-75 -68 -180 -68zM386 252v5q0 5 -2 6.5t-8 0.5l-59 -4q-76 -6 -135 -34t-59 -93q0 -32 23 -50.5t64 -18.5q30 0 59 10.5t53 27.5q23 17 37 35.5t17 36.5zM504 732q0 -6 -2 -9q-20 -42 -65.5 -69.5
t-103.5 -27.5q-62 0 -98.5 27t-44.5 75v4q0 10 11 10h50q5 0 8 -2.5t5 -6.5l3 -6q13 -18 28.5 -29t41.5 -11q30 0 53.5 13.5t37.5 33.5q7 8 17 8h48q11 0 11 -10z" />
    <glyph glyph-name="gravecomb" 
d="M-184 750l220 -97q4 -2 6 -6.5t0 -10.5l-14 -27q-3 -7 -8 -7l-9 2l-220 68q-9 3 -12 9t0 14l25 52q4 7 12 3z" />
    <glyph glyph-name="tildecomb" 
d="M-51 647q-32 0 -72 14q-14 5 -29 8.5t-29 3.5q-21 0 -35 -6t-31 -19q-2 -1 -6 -1q-5 0 -7 3t-4 10l-7 31q-2 6 -2 9q0 5 5 11q23 14 41 20.5t42 6.5q19 0 33.5 -3.5t41.5 -11.5q37 -13 59 -13q19 0 34 6.5t31 17.5q2 1 6 1q11 0 13 -13l6 -37v-5q0 -7 -7 -14
q-42 -19 -83 -19z" />
    <glyph glyph-name="uni0306" 
d="M56 732q0 -6 -2 -9q-20 -42 -65.5 -69.5t-103.5 -27.5q-62 0 -98.5 27t-44.5 75v4q0 10 11 10h50q5 0 8 -2.5t5 -6.5l3 -6q13 -18 28.5 -29t41.5 -11q30 0 53.5 13.5t37.5 33.5q7 8 17 8h48q11 0 11 -10z" />
    <glyph glyph-name="dotbelowcomb" 
d="M-69 -152q-1 -9 -3.5 -11t-12.5 -2h-60q-9 0 -13 4.5t-2 12.5l12 85q1 7 2.5 8.5t7.5 1.5h70q6 0 8.5 -4t1.5 -11z" />
    <glyph glyph-name="uni1EB8" unicode="&#x1eb8;" horiz-adv-x="636" 
d="M52 0zM157 740q2 2 9 2h470q11 0 8 -16l-8 -62q-1 -7 -5 -10t-12 -3h-344q-7 0 -9.5 -2.5t-3.5 -9.5l-30 -210v-3q0 -4 1.5 -5.5t6.5 -1.5h250q6 0 8 -2.5t1 -9.5l-10 -69q-1 -5 -3.5 -7t-8.5 -2h-249q-6 0 -8.5 -2.5t-3.5 -9.5l-30 -216v-4q0 -6 7 -6h362q7 0 9 -2.5
t1 -9.5l-8 -69q-2 -6 -4.5 -8t-9.5 -2h-474q-10 0 -13.5 4.5t-1.5 14.5l100 711q1 8 3 10zM300 -152q-1 -9 -3.5 -11t-12.5 -2h-60q-9 0 -13 4.5t-2 12.5l12 85q1 7 2.5 8.5t7.5 1.5h70q6 0 8.5 -4t1.5 -11z" />
    <glyph glyph-name="uni1EB9" unicode="&#x1eb9;" horiz-adv-x="582" 
d="M38 0zM146 18.5q-52 28.5 -80 80t-28 118.5q0 83 37 157.5t104.5 120t154.5 45.5q100 0 157.5 -59t57.5 -164q0 -30 -4 -57q-1 -16 -21 -16h-366q-8 0 -11 -10.5t-3 -34.5q0 -61 37.5 -96.5t98.5 -35.5q92 0 158 78q4 4 9 4t9 -3l47 -24q8 -3 8 -11q0 -4 -3 -9
q-51 -60 -108.5 -86t-133.5 -26q-68 0 -120 28.5zM428 305q11 0 17 9.5t6 33.5q0 53 -32 87t-86 34q-46 0 -84 -23t-61.5 -60.5t-28.5 -80.5h269zM289 -152q-1 -9 -3.5 -11t-12.5 -2h-60q-9 0 -13 4.5t-2 12.5l12 85q1 7 2.5 8.5t7.5 1.5h70q6 0 8.5 -4t1.5 -11z" />
    <glyph glyph-name="uni1EBC" unicode="&#x1ebc;" horiz-adv-x="636" 
d="M52 0zM157 740q2 2 9 2h470q11 0 8 -16l-8 -62q-1 -7 -5 -10t-12 -3h-344q-7 0 -9.5 -2.5t-3.5 -9.5l-30 -210v-3q0 -4 1.5 -5.5t6.5 -1.5h250q6 0 8 -2.5t1 -9.5l-10 -69q-1 -5 -3.5 -7t-8.5 -2h-249q-6 0 -8.5 -2.5t-3.5 -9.5l-30 -216v-4q0 -6 7 -6h362q7 0 9 -2.5
t1 -9.5l-8 -69q-2 -6 -4.5 -8t-9.5 -2h-474q-10 0 -13.5 4.5t-1.5 14.5l100 711q1 8 3 10zM498 859q-32 0 -72 14q-14 5 -29 8.5t-29 3.5q-21 0 -35 -6t-31 -19q-2 -1 -6 -1q-5 0 -7 3t-4 10l-7 31q-2 6 -2 9q0 5 5 11q23 14 41 20.5t42 6.5q19 0 33.5 -3.5t41.5 -11.5
q37 -13 59 -13q19 0 34 6.5t31 17.5q2 1 6 1q11 0 13 -13l6 -37v-5q0 -7 -7 -14q-42 -19 -83 -19z" />
    <glyph glyph-name="uni1EBD" unicode="&#x1ebd;" horiz-adv-x="582" 
d="M38 0zM146 18.5q-52 28.5 -80 80t-28 118.5q0 83 37 157.5t104.5 120t154.5 45.5q100 0 157.5 -59t57.5 -164q0 -30 -4 -57q-1 -16 -21 -16h-366q-8 0 -11 -10.5t-3 -34.5q0 -61 37.5 -96.5t98.5 -35.5q92 0 158 78q4 4 9 4t9 -3l47 -24q8 -3 8 -11q0 -4 -3 -9
q-51 -60 -108.5 -86t-133.5 -26q-68 0 -120 28.5zM428 305q11 0 17 9.5t6 33.5q0 53 -32 87t-86 34q-46 0 -84 -23t-61.5 -60.5t-28.5 -80.5h269zM426 647q-32 0 -72 14q-14 5 -29 8.5t-29 3.5q-21 0 -35 -6t-31 -19q-2 -1 -6 -1q-5 0 -7 3t-4 10l-7 31q-2 6 -2 9q0 5 5 11
q23 14 41 20.5t42 6.5q19 0 33.5 -3.5t41.5 -11.5q37 -13 59 -13q19 0 34 6.5t31 17.5q2 1 6 1q11 0 13 -13l6 -37v-5q0 -7 -7 -14q-42 -19 -83 -19z" />
    <glyph glyph-name="uni1ECA" unicode="&#x1eca;" horiz-adv-x="298" 
d="M43 0zM263 742q13 0 10 -18l-99 -708q-1 -11 -4.5 -13.5t-15.5 -2.5h-86q-17 0 -14 19l100 711q1 8 3.5 10t8.5 2h97zM136 -152q-1 -9 -3.5 -11t-12.5 -2h-60q-9 0 -13 4.5t-2 12.5l12 85q1 7 2.5 8.5t7.5 1.5h70q6 0 8.5 -4t1.5 -11z" />
    <glyph glyph-name="uni1ECB" unicode="&#x1ecb;" horiz-adv-x="247" 
d="M14 0zM231 633q-2 -11 -6 -14.5t-15 -3.5h-78q-16 0 -12 22l12 88q3 17 16 17h85q6 0 9 -5.5t1 -13.5zM141 16q-1 -11 -4.5 -13.5t-15.5 -2.5h-68q-10 0 -14.5 5t-2.5 14l70 499q1 8 3.5 10t9.5 2h82q6 0 9 -5t2 -12zM107 -152q-1 -9 -3.5 -11t-12.5 -2h-60q-9 0 -13 4.5
t-2 12.5l12 85q1 7 2.5 8.5t7.5 1.5h70q6 0 8.5 -4t1.5 -11z" />
    <glyph glyph-name="uni1ECC" unicode="&#x1ecc;" horiz-adv-x="767" 
d="M68 0zM141.5 67.5q-73.5 77.5 -73.5 219.5q0 50 6 87q17 118 67.5 203t129 130t177.5 45q132 0 206 -79t74 -223q0 -50 -6 -87q-16 -117 -66.5 -201t-129 -128t-177.5 -44q-134 0 -207.5 77.5zM516 150.5q60 71.5 82 222.5q7 52 7 99q0 98 -40 145t-120 47
q-102 0 -163 -74.5t-83 -227.5q-8 -56 -8 -94q0 -97 40.5 -143t122.5 -46q102 0 162 71.5zM373 -152q-1 -9 -3.5 -11t-12.5 -2h-60q-9 0 -13 4.5t-2 12.5l12 85q1 7 2.5 8.5t7.5 1.5h70q6 0 8.5 -4t1.5 -11z" />
    <glyph glyph-name="uni1ECD" unicode="&#x1ecd;" horiz-adv-x="599" 
d="M38 0zM144 18.5q-51 28.5 -78.5 80t-27.5 119.5q0 92 40 165.5t108 115t149 41.5q68 0 119 -29.5t78 -82t27 -121.5q0 -90 -39 -162.5t-106.5 -113.5t-149.5 -41q-69 0 -120 28.5zM363 96.5q42 31.5 66.5 90.5t24.5 138q0 67 -31.5 104.5t-89.5 37.5q-53 0 -95.5 -32
t-67.5 -91.5t-25 -138.5q0 -66 32 -103t91 -37q53 0 95 31.5zM285 -152q-1 -9 -3.5 -11t-12.5 -2h-60q-9 0 -13 4.5t-2 12.5l12 85q1 7 2.5 8.5t7.5 1.5h70q6 0 8.5 -4t1.5 -11z" />
    <glyph glyph-name="uni1EE4" unicode="&#x1ee4;" horiz-adv-x="713" 
d="M75 0zM534.5 52.5q-77.5 -62.5 -212.5 -62.5q-127 0 -187 53.5t-60 160.5q0 33 6 72l64 453q1 8 3 10.5t9 2.5h94q7 0 11 -5t2 -13l-66 -475q-4 -32 -4 -44q0 -64 35 -94.5t105 -30.5q84 0 135 44t63 134l66 472q2 8 4 10t8 2h76q6 0 9.5 -5t2.5 -12l-66 -472
q-20 -138 -97.5 -200.5zM300 -152q-1 -9 -3.5 -11t-12.5 -2h-60q-9 0 -13 4.5t-2 12.5l12 85q1 7 2.5 8.5t7.5 1.5h70q6 0 8.5 -4t1.5 -11z" />
    <glyph glyph-name="uni1EE5" unicode="&#x1ee5;" horiz-adv-x="583" 
d="M46 0zM85 26q-39 36 -39 96q0 18 1 26l52 367q2 9 5 12t12 3h74q8 0 11.5 -5.5t2.5 -13.5l-49 -346q-1 -7 -1 -20q0 -75 76 -75q39 0 78 21t82 60l52 365q1 9 5 11.5t14 2.5h72q8 0 12.5 -5.5t3.5 -13.5l-72 -500q-2 -7 -4 -9t-8 -2h-78q-13 0 -12 12l8 54v2q0 4 -3 4
t-8 -4q-54 -43 -97.5 -60.5t-87.5 -17.5q-63 0 -102 36zM268 -152q-1 -9 -3.5 -11t-12.5 -2h-60q-9 0 -13 4.5t-2 12.5l12 85q1 7 2.5 8.5t7.5 1.5h70q6 0 8.5 -4t1.5 -11z" />
    <glyph glyph-name="Ygrave" unicode="&#x1ef2;" horiz-adv-x="694" 
d="M104 0zM721 739.5q3 -2.5 3 -6.5q0 -3 -3 -8l-294 -395q-6 -8 -8.5 -15.5t-4.5 -24.5l-39 -273q-1 -10 -6 -13.5t-17 -3.5h-85q-9 0 -11.5 4t-1.5 13l40 278q1 5 1 12q0 9 -4 18l-184 401q-3 6 -3 9q0 7 13 7h97q9 0 13.5 -4t8.5 -13l132 -301q3 -9 8 -9q4 0 10 9
l219 307q5 7 9 9t15 2h84q5 0 8 -2.5zM333 962l220 -97q4 -2 6 -6.5t0 -10.5l-14 -27q-3 -7 -8 -7l-9 2l-220 68q-9 3 -12 9t0 14l25 52q4 7 12 3z" />
    <glyph glyph-name="ygrave" unicode="&#x1ef3;" horiz-adv-x="541" 
d="M0 0zM-3 -162q-12 3 -11 13l7 50q2 14 34 14h62q24 0 46 16.5t36 41t14 45.5q0 6 -2 14l-125 476q-1 3 -1 9q0 13 13 13h90q13 0 14 -10l88 -360q2 -11 7 -11q6 0 12 13l184 353q7 15 19 15h61q8 0 8 -6q0 -3 -3 -9l-293 -545q-29 -54 -59.5 -83t-67.5 -40.5t-89 -11.5
q-32 0 -44 3zM236 750l220 -97q4 -2 6 -6.5t0 -10.5l-14 -27q-3 -7 -8 -7l-9 2l-220 68q-9 3 -12 9t0 14l25 52q4 7 12 3z" />
    <glyph glyph-name="uni1EF8" unicode="&#x1ef8;" horiz-adv-x="694" 
d="M104 0zM721 739.5q3 -2.5 3 -6.5q0 -3 -3 -8l-294 -395q-6 -8 -8.5 -15.5t-4.5 -24.5l-39 -273q-1 -10 -6 -13.5t-17 -3.5h-85q-9 0 -11.5 4t-1.5 13l40 278q1 5 1 12q0 9 -4 18l-184 401q-3 6 -3 9q0 7 13 7h97q9 0 13.5 -4t8.5 -13l132 -301q3 -9 8 -9q4 0 10 9
l219 307q5 7 9 9t15 2h84q5 0 8 -2.5zM508 859q-32 0 -72 14q-14 5 -29 8.5t-29 3.5q-21 0 -35 -6t-31 -19q-2 -1 -6 -1q-5 0 -7 3t-4 10l-7 31q-2 6 -2 9q0 5 5 11q23 14 41 20.5t42 6.5q19 0 33.5 -3.5t41.5 -11.5q37 -13 59 -13q19 0 34 6.5t31 17.5q2 1 6 1q11 0 13 -13
l6 -37v-5q0 -7 -7 -14q-42 -19 -83 -19z" />
    <glyph glyph-name="uni1EF9" unicode="&#x1ef9;" horiz-adv-x="541" 
d="M0 0zM-3 -162q-12 3 -11 13l7 50q2 14 34 14h62q24 0 46 16.5t36 41t14 45.5q0 6 -2 14l-125 476q-1 3 -1 9q0 13 13 13h90q13 0 14 -10l88 -360q2 -11 7 -11q6 0 12 13l184 353q7 15 19 15h61q8 0 8 -6q0 -3 -3 -9l-293 -545q-29 -54 -59.5 -83t-67.5 -40.5t-89 -11.5
q-32 0 -44 3zM411 647q-32 0 -72 14q-14 5 -29 8.5t-29 3.5q-21 0 -35 -6t-31 -19q-2 -1 -6 -1q-5 0 -7 3t-4 10l-7 31q-2 6 -2 9q0 5 5 11q23 14 41 20.5t42 6.5q19 0 33.5 -3.5t41.5 -11.5q37 -13 59 -13q19 0 34 6.5t31 17.5q2 1 6 1q11 0 13 -13l6 -37v-5q0 -7 -7 -14
q-42 -19 -83 -19z" />
    <glyph glyph-name="dong" unicode="&#x20ab;" horiz-adv-x="513" 
d="M558 675q3 -4 2 -9l-4 -32q-1 -6 -3.5 -7.5t-10.5 -1.5h-50l-68 -479q-1 -8 -3 -9.5t-11 -1.5h-60q-6 0 -10.5 4.5t-3.5 11.5l5 31v2q0 2 -1 2q-4 0 -9 -8q-3 -2 -22.5 -17t-48 -24.5t-60.5 -9.5q-70 0 -113 45.5t-43 129.5q0 27 4 51q10 67 41 118t77 79t98 28
q39 0 63 -12.5t44 -36.5q4 -2 7 -2q8 0 11 14l12 84h-117q-7 0 -10.5 4.5t-1.5 10.5l4 31q1 5 2.5 6.5t5.5 1.5h124l8 54q1 6 2.5 7t7.5 1h69q5 0 8 -4t3 -11l-7 -47h52q4 0 7 -4zM378 468q-19 23 -40 33.5t-48 10.5q-55 0 -95 -43.5t-52 -124.5q-3 -22 -3 -42
q0 -56 25.5 -83.5t67.5 -27.5q29 0 55 13.5t42.5 34t19.5 41.5zM410.5 53.5q2.5 -3.5 2.5 -8.5l-5 -36q-1 -6 -3.5 -7.5t-10.5 -1.5h-356q-15 0 -12 15l5 35q1 5 2 6t5 1h366q4 0 6.5 -3.5z" />
    <glyph glyph-name=".ttfautohint" horiz-adv-x="513" 
d="M0 0z" />
    </font>
</defs>
</svg>
