<?xml version="1.0" standalone="no"?>
<!DOCTYPE svg PUBLIC "-//W3C//DTD SVG 1.1//EN" "http://www.w3.org/Graphics/SVG/1.1/DTD/svg11.dtd" >
<svg xmlns="http://www.w3.org/2000/svg" xmlns:xlink="http://www.w3.org/1999/xlink" version="1.1">
<metadata>
Created by FontForge 20170731 at Fri Apr 26 10:12:14 2019
 By Aleksey,,,
(c) 2011 Microsoft Corporation. All rights reserved.
</metadata>
<defs>
<font id="Verdana-BoldItalic" horiz-adv-x="1456" >
  <font-face 
    font-family="Verdana"
    font-weight="700"
    font-style="italic"
    font-stretch="normal"
    units-per-em="2048"
    panose-1="2 11 8 4 3 5 4 11 2 4"
    ascent="1638"
    descent="-410"
    bbox="-1100 -423 2099 2049"
    underline-thickness="211"
    underline-position="-454"
    slope="-13"
    unicode-range="U+0020-20AB"
  />
<missing-glyph horiz-adv-x="2048" 
d="M256 0v1536h1536v-1536h-1536zM384 128h1280v1280h-1280v-1280z" />
    <glyph glyph-name=".notdef" horiz-adv-x="2048" 
d="M256 0v1536h1536v-1536h-1536zM384 128h1280v1280h-1280v-1280z" />
    <glyph glyph-name="glyph1" horiz-adv-x="0" 
 />
    <glyph glyph-name="glyph2" horiz-adv-x="700" 
 />
    <glyph glyph-name="space" unicode=" " horiz-adv-x="700" 
 />
    <glyph glyph-name="A" horiz-adv-x="1590" 
d="M1451 0h-387l-34 304h-548l-174 -304h-401l893 1489h444zM1001 571l-60 535l-307 -535h367z" />
    <glyph glyph-name="E" horiz-adv-x="1399" 
d="M1482 1489l-65 -282h-695l-62 -266h645l-66 -283h-645l-87 -376h695l-64 -282h-1079l344 1489h1079z" />
    <glyph glyph-name="I" horiz-adv-x="1118" 
d="M865 0h-872l61 264h243l222 961h-243l61 264h872l-61 -264h-243l-222 -961h243z" />
    <glyph glyph-name="O" horiz-adv-x="1741" 
d="M1707 935q0 -183 -62 -360t-180 -309q-129 -144 -301 -220.5t-396 -76.5q-305 0 -477.5 157.5t-172.5 433.5q0 194 66 369t189 308q120 129 297 206t386 77q306 0 478.5 -158t172.5 -427zM1158 427q68 89 106.5 206.5t38.5 270.5q0 160 -76.5 250.5t-218.5 90.5
q-93 0 -177.5 -42.5t-155.5 -129.5q-69 -83 -111 -206.5t-42 -277.5q0 -171 78.5 -258t217.5 -87q96 0 185 47.5t155 135.5z" />
    <glyph glyph-name="U" horiz-adv-x="1663" 
d="M1710 1489l-216 -930q-73 -309 -247 -448.5t-504 -139.5q-294 0 -445 105.5t-151 319.5q0 44 7 89t15 82l214 922h388l-214 -923q-7 -28 -11.5 -61.5t-4.5 -55.5q0 -94 56.5 -142.5t187.5 -48.5q127 0 205.5 70t112.5 218l219 943h388z" />
    <glyph glyph-name="Y" horiz-adv-x="1509" 
d="M1715 1489l-759 -913l-133 -576h-386l129 558l-342 931h411l191 -583l445 583h444z" />
    <glyph glyph-name="grave" 
d="M1065 1283h-226l-286 373v20h341z" />
    <glyph glyph-name="a" horiz-adv-x="1368" 
d="M843 530q-96 -8 -180 -19t-143 -32q-61 -22 -93 -62t-32 -106q0 -58 42.5 -81.5t123.5 -23.5q53 0 113.5 24.5t113.5 62.5zM748 119q-34 -22 -82 -53t-89 -49q-56 -23 -105 -35t-136 -12q-140 0 -228.5 78.5t-88.5 204.5q0 133 63 225.5t187 147.5q116 52 276.5 75
t347.5 34q1 6 4 19.5t3 30.5q0 71 -66 99.5t-197 28.5q-89 0 -196.5 -30t-161.5 -50h-33l53 266q63 16 195 36t263 20q264 0 387.5 -69t123.5 -214q0 -20 -3.5 -52t-9.5 -56l-176 -764h-358z" />
    <glyph glyph-name="e" horiz-adv-x="1360" 
d="M949 706q3 18 4.5 33t1.5 31q0 79 -49 121t-141 42q-111 0 -186.5 -60t-114.5 -167h485zM674 -30q-287 0 -443 127t-156 351q0 153 51 281t147 225q92 94 230 149t303 55q251 0 378.5 -101.5t127.5 -299.5q0 -68 -13.5 -133t-35.5 -129h-834v-11.5v-11.5q0 -117 82 -183
t251 -66q118 0 223.5 40t183.5 89h40l-67 -289q-105 -46 -221 -69.5t-247 -23.5z" />
    <glyph glyph-name="i" horiz-adv-x="700" 
d="M662 1123l-260 -1123h-362l260 1123h362zM772 1556l-63 -273h-382l63 273h382z" />
    <glyph glyph-name="o" horiz-adv-x="1404" 
d="M1335 712q0 -158 -53 -296t-149 -237q-100 -103 -232 -158.5t-308 -55.5q-251 0 -385 120t-134 332q0 150 50 285t148 238q95 101 233.5 159.5t310.5 58.5q252 0 385.5 -118.5t133.5 -327.5zM867 344q46 70 69.5 153t23.5 202q0 103 -45 158.5t-143 55.5
q-76 0 -133.5 -37t-101.5 -105q-41 -63 -64.5 -156t-23.5 -191q0 -115 51 -164.5t140 -49.5q65 0 125 35.5t102 98.5z" />
    <glyph glyph-name="u" horiz-adv-x="1459" 
d="M1420 1123l-260 -1123h-362l29 124q-54 -35 -105.5 -65.5t-97.5 -48.5q-58 -24 -106 -32.5t-95 -8.5q-148 0 -233.5 71t-85.5 210q0 38 4 70.5t13 71.5l169 731h364l-129 -557q-15 -64 -22.5 -110t-7.5 -78q0 -66 32 -95.5t121 -29.5q44 0 101.5 19t124.5 55l184 796h362
z" />
    <glyph glyph-name="y" horiz-adv-x="1333" 
d="M454 -412h-395l286 434l-185 1101h368l97 -736l428 736h380z" />
    <glyph glyph-name="acute" 
d="M1308 1656l-438 -373h-256l313 393h381v-20z" />
    <glyph glyph-name="Abreve" unicode="&#x102;" horiz-adv-x="1590" 
d="M0 0zM1451 0h-387l-34 304h-548l-174 -304h-401l893 1489h444zM1001 571l-60 535l-307 -535h367zM1480 2009q-49 -192 -170 -286.5t-304 -94.5q-146 0 -230 64.5t-84 193.5q0 31 3 57.5t12 65.5h217q-6 -24 -8.5 -44.5t-2.5 -35.5q0 -57 28 -90.5t100 -33.5
q87 0 138 57.5t72 146.5h229z" />
    <glyph glyph-name="abreve" unicode="&#x103;" horiz-adv-x="1368" 
d="M19 0zM843 530q-96 -8 -180 -19t-143 -32q-61 -22 -93 -62t-32 -106q0 -58 42.5 -81.5t123.5 -23.5q53 0 113.5 24.5t113.5 62.5zM748 119q-34 -22 -82 -53t-89 -49q-56 -23 -105 -35t-136 -12q-140 0 -228.5 78.5t-88.5 204.5q0 133 63 225.5t187 147.5q116 52 276.5 75
t347.5 34q1 6 4 19.5t3 30.5q0 71 -66 99.5t-197 28.5q-89 0 -196.5 -30t-161.5 -50h-33l53 266q63 16 195 36t263 20q264 0 387.5 -69t123.5 -214q0 -20 -3.5 -52t-9.5 -56l-176 -764h-358zM1237 1636q-49 -192 -170 -286.5t-304 -94.5q-146 0 -230 64.5t-84 193.5
q0 31 3 57.5t12 65.5h217q-6 -24 -8.5 -44.5t-2.5 -35.5q0 -57 28 -90.5t100 -33.5q87 0 138 57.5t72 146.5h229z" />
    <glyph glyph-name="dotlessi" horiz-adv-x="700" 
d="M662 1123l-260 -1123h-362l260 1123h362z" />
    <glyph glyph-name="Ohorn" horiz-adv-x="1871" 
d="M1707 935q0 -183 -62 -360t-180 -309q-129 -144 -301 -220.5t-396 -76.5q-305 0 -477.5 157.5t-172.5 433.5q0 194 66 369t189 308q120 129 297 206t386 77q230 0 385 -90t223 -254q106 11 153 95.5t61 217.5h221q-20 -253 -131.5 -369.5t-263.5 -127.5q2 -14 2.5 -28.5
t0.5 -28.5zM1158 427q68 89 106.5 206.5t38.5 270.5q0 160 -76.5 250.5t-218.5 90.5q-93 0 -177.5 -42.5t-155.5 -129.5q-69 -83 -111 -206.5t-42 -277.5q0 -171 78.5 -258t217.5 -87q96 0 185 47.5t155 135.5zM1741 0z" />
    <glyph glyph-name="ohorn" horiz-adv-x="1404" 
d="M1335 712q0 -158 -53 -296t-149 -237q-100 -103 -232 -158.5t-308 -55.5q-251 0 -385 120t-134 332q0 150 50 285t148 238q95 101 233.5 159.5t310.5 58.5q68 0 128 -9t111 -26q111 12 161.5 96t64.5 217h221q-15 -189 -77.5 -295.5t-169.5 -160.5q41 -55 60.5 -121.5
t19.5 -146.5zM867 344q46 70 69.5 153t23.5 202q0 103 -45 158.5t-143 55.5q-76 0 -133.5 -37t-101.5 -105q-41 -63 -64.5 -156t-23.5 -191q0 -115 51 -164.5t140 -49.5q65 0 125 35.5t102 98.5z" />
    <glyph glyph-name="Uhorn" horiz-adv-x="1733" 
d="M1667 1305l-173 -746q-73 -309 -247 -448.5t-504 -139.5q-294 0 -445 105.5t-151 319.5q0 44 7 89t15 82l214 922h388l-214 -923q-7 -28 -11.5 -61.5t-4.5 -55.5q0 -94 56.5 -142.5t187.5 -48.5q127 0 205.5 70t112.5 218l219 943h249q154 0 205 90t65 223h221
q-20 -253 -131.5 -369.5t-263.5 -127.5zM1663 0z" />
    <glyph glyph-name="uhorn" horiz-adv-x="1519" 
d="M1378 939l-218 -939h-362l29 124q-54 -35 -105.5 -65.5t-97.5 -48.5q-58 -24 -106 -32.5t-95 -8.5q-148 0 -233.5 71t-85.5 210q0 38 4 70.5t13 71.5l169 731h364l-129 -557q-15 -64 -22.5 -110t-7.5 -78q0 -66 32 -95.5t121 -29.5q44 0 101.5 19t124.5 55l184 796h224
q154 0 205 90t65 223h221q-20 -253 -131.5 -369.5t-263.5 -127.5zM1459 0z" />
    <glyph glyph-name="circumflex" 
d="M1288 1283h-255l-134 219l-235 -219h-269l412 393h251z" />
    <glyph glyph-name="breve" 
d="M1284 1636q-49 -192 -170 -286.5t-304 -94.5q-146 0 -230 64.5t-84 193.5q0 31 3 57.5t12 65.5h217q-6 -24 -8.5 -44.5t-2.5 -35.5q0 -57 28 -90.5t100 -33.5q87 0 138 57.5t72 146.5h229z" />
    <glyph glyph-name="tilde" 
d="M1333 1618q-28 -156 -113.5 -243.5t-216.5 -87.5q-60 0 -107.5 21t-101.5 57q-27 19 -48.5 28t-44.5 9q-47 0 -71 -31t-42 -91h-219q27 155 113.5 243t216.5 88q62 0 108.5 -20.5t100.5 -57.5q29 -20 47.5 -28.5t45.5 -8.5q49 0 73 32t40 90h219z" />
    <glyph glyph-name="hookabovecomb" horiz-adv-x="0" 
d="M-174 1530q0 -73 -55 -113.5t-117 -60.5l-14 -59h-178l26 112q50 12 86.5 37t36.5 64q0 23 -16.5 37t-49.5 14q-31 0 -49.5 -4.5t-44.5 -13.5h-3l27 115q20 6 59.5 12t82.5 6q120 0 164.5 -41.5t44.5 -104.5z" />
    <glyph glyph-name="dotbelowcomb" horiz-adv-x="0" 
d="M-730 -423h-370l63 273h370z" />
    <glyph glyph-name="uni1EA0" unicode="&#x1ea0;" horiz-adv-x="1590" 
d="M0 0zM1451 0h-387l-34 304h-548l-174 -304h-401l893 1489h444zM1001 571l-60 535l-307 -535h367zM802 -423h-370l63 273h370z" />
    <glyph glyph-name="uni1EA1" unicode="&#x1ea1;" horiz-adv-x="1368" 
d="M19 0zM843 530q-96 -8 -180 -19t-143 -32q-61 -22 -93 -62t-32 -106q0 -58 42.5 -81.5t123.5 -23.5q53 0 113.5 24.5t113.5 62.5zM748 119q-34 -22 -82 -53t-89 -49q-56 -23 -105 -35t-136 -12q-140 0 -228.5 78.5t-88.5 204.5q0 133 63 225.5t187 147.5q116 52 276.5 75
t347.5 34q1 6 4 19.5t3 30.5q0 71 -66 99.5t-197 28.5q-89 0 -196.5 -30t-161.5 -50h-33l53 266q63 16 195 36t263 20q264 0 387.5 -69t123.5 -214q0 -20 -3.5 -52t-9.5 -56l-176 -764h-358zM670 -423h-370l63 273h370z" />
    <glyph glyph-name="uni1EA2" unicode="&#x1ea2;" horiz-adv-x="1590" 
d="M0 0zM1451 0h-387l-34 304h-548l-174 -304h-401l893 1489h444zM1001 571l-60 535l-307 -535h367zM1329 1903q0 -73 -55 -113.5t-117 -60.5l-14 -59h-178l26 112q50 12 86.5 37t36.5 64q0 23 -16.5 37t-49.5 14q-31 0 -49.5 -4.5t-44.5 -13.5h-3l27 115q20 6 59.5 12
t82.5 6q120 0 164.5 -41.5t44.5 -104.5z" />
    <glyph glyph-name="uni1EA3" unicode="&#x1ea3;" horiz-adv-x="1368" 
d="M19 0zM843 530q-96 -8 -180 -19t-143 -32q-61 -22 -93 -62t-32 -106q0 -58 42.5 -81.5t123.5 -23.5q53 0 113.5 24.5t113.5 62.5zM748 119q-34 -22 -82 -53t-89 -49q-56 -23 -105 -35t-136 -12q-140 0 -228.5 78.5t-88.5 204.5q0 133 63 225.5t187 147.5q116 52 276.5 75
t347.5 34q1 6 4 19.5t3 30.5q0 71 -66 99.5t-197 28.5q-89 0 -196.5 -30t-161.5 -50h-33l53 266q63 16 195 36t263 20q264 0 387.5 -69t123.5 -214q0 -20 -3.5 -52t-9.5 -56l-176 -764h-358zM1076 1530q0 -73 -55 -113.5t-117 -60.5l-14 -59h-178l26 112q50 12 86.5 37
t36.5 64q0 23 -16.5 37t-49.5 14q-31 0 -49.5 -4.5t-44.5 -13.5h-3l27 115q20 6 59.5 12t82.5 6q120 0 164.5 -41.5t44.5 -104.5z" />
    <glyph glyph-name="uni1EA4" unicode="&#x1ea4;" horiz-adv-x="1590" 
d="M0 0zM1451 0h-387l-34 304h-548l-174 -304h-401l893 1489h444zM1001 571l-60 535l-307 -535h367zM1455 1636h-255l-134 219l-235 -219h-269l412 393h251zM1880 2029l-235 -266h-178l150 266h263z" />
    <glyph glyph-name="uni1EA5" unicode="&#x1ea5;" horiz-adv-x="1368" 
d="M19 0zM843 530q-96 -8 -180 -19t-143 -32q-61 -22 -93 -62t-32 -106q0 -58 42.5 -81.5t123.5 -23.5q53 0 113.5 24.5t113.5 62.5zM748 119q-34 -22 -82 -53t-89 -49q-56 -23 -105 -35t-136 -12q-140 0 -228.5 78.5t-88.5 204.5q0 133 63 225.5t187 147.5q116 52 276.5 75
t347.5 34q1 6 4 19.5t3 30.5q0 71 -66 99.5t-197 28.5q-89 0 -196.5 -30t-161.5 -50h-33l53 266q63 16 195 36t263 20q264 0 387.5 -69t123.5 -214q0 -20 -3.5 -52t-9.5 -56l-176 -764h-358zM1253 1283h-255l-134 219l-235 -219h-269l412 393h251zM1678 1676l-235 -266h-178
l150 266h263z" />
    <glyph glyph-name="uni1EA6" unicode="&#x1ea6;" horiz-adv-x="1590" 
d="M0 0zM1451 0h-387l-34 304h-548l-174 -304h-401l893 1489h444zM1001 571l-60 535l-307 -535h367zM1455 1636h-255l-134 219l-235 -219h-269l412 393h251zM612 1763h-177l-180 266h261z" />
    <glyph glyph-name="uni1EA7" unicode="&#x1ea7;" horiz-adv-x="1368" 
d="M19 0zM843 530q-96 -8 -180 -19t-143 -32q-61 -22 -93 -62t-32 -106q0 -58 42.5 -81.5t123.5 -23.5q53 0 113.5 24.5t113.5 62.5zM748 119q-34 -22 -82 -53t-89 -49q-56 -23 -105 -35t-136 -12q-140 0 -228.5 78.5t-88.5 204.5q0 133 63 225.5t187 147.5q116 52 276.5 75
t347.5 34q1 6 4 19.5t3 30.5q0 71 -66 99.5t-197 28.5q-89 0 -196.5 -30t-161.5 -50h-33l53 266q63 16 195 36t263 20q264 0 387.5 -69t123.5 -214q0 -20 -3.5 -52t-9.5 -56l-176 -764h-358zM1253 1283h-255l-134 219l-235 -219h-269l412 393h251zM410 1410h-177l-180 266
h261z" />
    <glyph glyph-name="uni1EA8" unicode="&#x1ea8;" horiz-adv-x="1590" 
d="M0 0zM1451 0h-387l-34 304h-548l-174 -304h-401l893 1489h444zM1001 571l-60 535l-307 -535h367zM1431 1638h-249l-131 171l-186 -171h-267l356 331h231zM1838 1903q0 -73 -55 -113.5t-117 -60.5l-14 -59h-178l26 112q50 12 86.5 37t36.5 64q0 23 -16.5 37t-49.5 14
q-31 0 -49.5 -4.5t-44.5 -13.5h-3l27 115q20 6 59.5 12t82.5 6q120 0 164.5 -41.5t44.5 -104.5z" />
    <glyph glyph-name="uni1EA9" unicode="&#x1ea9;" horiz-adv-x="1368" 
d="M19 0zM843 530q-96 -8 -180 -19t-143 -32q-61 -22 -93 -62t-32 -106q0 -58 42.5 -81.5t123.5 -23.5q53 0 113.5 24.5t113.5 62.5zM748 119q-34 -22 -82 -53t-89 -49q-56 -23 -105 -35t-136 -12q-140 0 -228.5 78.5t-88.5 204.5q0 133 63 225.5t187 147.5q116 52 276.5 75
t347.5 34q1 6 4 19.5t3 30.5q0 71 -66 99.5t-197 28.5q-89 0 -196.5 -30t-161.5 -50h-33l53 266q63 16 195 36t263 20q264 0 387.5 -69t123.5 -214q0 -20 -3.5 -52t-9.5 -56l-176 -764h-358zM1253 1283h-255l-134 219l-235 -219h-269l412 393h251zM1565 1728
q0 -73 -55 -113.5t-117 -60.5l-14 -59h-178l26 112q50 12 86.5 37t36.5 64q0 23 -16.5 37t-49.5 14q-31 0 -49.5 -4.5t-44.5 -13.5h-3l27 115q20 6 59.5 12t82.5 6q120 0 164.5 -41.5t44.5 -104.5z" />
    <glyph glyph-name="uni1EAA" unicode="&#x1eaa;" horiz-adv-x="1590" 
d="M0 0zM1451 0h-387l-34 304h-548l-174 -304h-401l893 1489h444zM1001 571l-60 535l-307 -535h367zM1411 1596h-255l-119 83l-141 -83h-260l276 173h257zM1467 2049q-18 -81 -85.5 -147t-189.5 -66q-37 0 -72.5 10t-70.5 26q-39 18 -58 24.5t-39 6.5q-29 0 -49.5 -16
t-32.5 -51h-184q19 81 86 147t189 66q37 0 72.5 -9.5t71.5 -26.5q39 -18 57.5 -24.5t38.5 -6.5q29 0 50 16t32 51h184z" />
    <glyph glyph-name="uni1EAB" unicode="&#x1eab;" horiz-adv-x="1368" 
d="M19 0zM843 530q-96 -8 -180 -19t-143 -32q-61 -22 -93 -62t-32 -106q0 -58 42.5 -81.5t123.5 -23.5q53 0 113.5 24.5t113.5 62.5zM748 119q-34 -22 -82 -53t-89 -49q-56 -23 -105 -35t-136 -12q-140 0 -228.5 78.5t-88.5 204.5q0 133 63 225.5t187 147.5q116 52 276.5 75
t347.5 34q1 6 4 19.5t3 30.5q0 71 -66 99.5t-197 28.5q-89 0 -196.5 -30t-161.5 -50h-33l53 266q63 16 195 36t263 20q264 0 387.5 -69t123.5 -214q0 -20 -3.5 -52t-9.5 -56l-176 -764h-358zM1253 1283h-255l-134 219l-235 -219h-269l412 393h251zM1400 2049
q-28 -156 -113.5 -243.5t-216.5 -87.5q-60 0 -107.5 21t-101.5 57q-28 19 -49 28t-44 9q-47 0 -71 -31t-42 -91h-219q27 155 113.5 243t216.5 88q62 0 108.5 -20.5t100.5 -57.5q29 -20 47.5 -28.5t45.5 -8.5q49 0 73 32t40 90h219z" />
    <glyph glyph-name="uni1EAC" unicode="&#x1eac;" horiz-adv-x="1590" 
d="M0 0zM1451 0h-387l-34 304h-548l-174 -304h-401l893 1489h444zM1001 571l-60 535l-307 -535h367zM1455 1636h-255l-134 219l-235 -219h-269l412 393h251zM802 -423h-370l63 273h370z" />
    <glyph glyph-name="uni1EAD" unicode="&#x1ead;" horiz-adv-x="1368" 
d="M19 0zM843 530q-96 -8 -180 -19t-143 -32q-61 -22 -93 -62t-32 -106q0 -58 42.5 -81.5t123.5 -23.5q53 0 113.5 24.5t113.5 62.5zM748 119q-34 -22 -82 -53t-89 -49q-56 -23 -105 -35t-136 -12q-140 0 -228.5 78.5t-88.5 204.5q0 133 63 225.5t187 147.5q116 52 276.5 75
t347.5 34q1 6 4 19.5t3 30.5q0 71 -66 99.5t-197 28.5q-89 0 -196.5 -30t-161.5 -50h-33l53 266q63 16 195 36t263 20q264 0 387.5 -69t123.5 -214q0 -20 -3.5 -52t-9.5 -56l-176 -764h-358zM1253 1283h-255l-134 219l-235 -219h-269l412 393h251zM670 -423h-370l63 273h370
z" />
    <glyph glyph-name="uni1EAE" unicode="&#x1eae;" horiz-adv-x="1590" 
d="M0 0zM1451 0h-387l-34 304h-548l-174 -304h-401l893 1489h444zM1001 571l-60 535l-307 -535h367zM1450 1858q-20 -92 -126.5 -177t-292.5 -85q-178 0 -259.5 70.5t-81.5 152.5q0 7 0.5 19.5t1.5 19.5h212q-1 -8 -1.5 -16.5t-0.5 -14.5q0 -31 33.5 -58t113.5 -27
q90 0 135.5 41t53.5 75h212zM1347 2049l-208 -206h-171l116 206h263z" />
    <glyph glyph-name="uni1EAF" unicode="&#x1eaf;" horiz-adv-x="1368" 
d="M19 0zM843 530q-96 -8 -180 -19t-143 -32q-61 -22 -93 -62t-32 -106q0 -58 42.5 -81.5t123.5 -23.5q53 0 113.5 24.5t113.5 62.5zM748 119q-34 -22 -82 -53t-89 -49q-56 -23 -105 -35t-136 -12q-140 0 -228.5 78.5t-88.5 204.5q0 133 63 225.5t187 147.5q116 52 276.5 75
t347.5 34q1 6 4 19.5t3 30.5q0 71 -66 99.5t-197 28.5q-89 0 -196.5 -30t-161.5 -50h-33l53 266q63 16 195 36t263 20q264 0 387.5 -69t123.5 -214q0 -20 -3.5 -52t-9.5 -56l-176 -764h-358zM1237 1636q-49 -192 -170 -286.5t-304 -94.5q-146 0 -230 64.5t-84 193.5
q0 31 3 57.5t12 65.5h217q-6 -24 -8.5 -44.5t-2.5 -35.5q0 -57 28 -90.5t100 -33.5q87 0 138 57.5t72 146.5h229zM1152 1932l-235 -266h-178l150 266h263z" />
    <glyph glyph-name="uni1EB0" unicode="&#x1eb0;" horiz-adv-x="1590" 
d="M0 0zM1451 0h-387l-34 304h-548l-174 -304h-401l893 1489h444zM1001 571l-60 535l-307 -535h367zM1450 1858q-20 -92 -126.5 -177t-292.5 -85q-178 0 -259.5 70.5t-81.5 152.5q0 7 0.5 19.5t1.5 19.5h212q-1 -8 -1.5 -16.5t-0.5 -14.5q0 -31 33.5 -58t113.5 -27
q90 0 135.5 41t53.5 75h212zM1166 1843h-169l-164 206h261z" />
    <glyph glyph-name="uni1EB1" unicode="&#x1eb1;" horiz-adv-x="1368" 
d="M19 0zM843 530q-96 -8 -180 -19t-143 -32q-61 -22 -93 -62t-32 -106q0 -58 42.5 -81.5t123.5 -23.5q53 0 113.5 24.5t113.5 62.5zM748 119q-34 -22 -82 -53t-89 -49q-56 -23 -105 -35t-136 -12q-140 0 -228.5 78.5t-88.5 204.5q0 133 63 225.5t187 147.5q116 52 276.5 75
t347.5 34q1 6 4 19.5t3 30.5q0 71 -66 99.5t-197 28.5q-89 0 -196.5 -30t-161.5 -50h-33l53 266q63 16 195 36t263 20q264 0 387.5 -69t123.5 -214q0 -20 -3.5 -52t-9.5 -56l-176 -764h-358zM1237 1636q-49 -192 -170 -286.5t-304 -94.5q-146 0 -230 64.5t-84 193.5
q0 31 3 57.5t12 65.5h217q-6 -24 -8.5 -44.5t-2.5 -35.5q0 -57 28 -90.5t100 -33.5q87 0 138 57.5t72 146.5h229zM942 1666h-177l-180 266h261z" />
    <glyph glyph-name="uni1EB2" unicode="&#x1eb2;" horiz-adv-x="1590" 
d="M0 0zM1451 0h-387l-34 304h-548l-174 -304h-401l893 1489h444zM1001 571l-60 535l-307 -535h367zM1450 1858q-20 -92 -126.5 -177t-292.5 -85q-178 0 -259.5 70.5t-81.5 152.5q0 7 0.5 19.5t1.5 19.5h212q-1 -8 -1.5 -16.5t-0.5 -14.5q0 -31 33.5 -58t113.5 -27
q90 0 135.5 41t53.5 75h212zM1227 1948q0 -47 -34.5 -74.5t-83.5 -42.5l-11 -47h-107l19 84q37 7 59.5 23.5t22.5 35.5q0 16 -11.5 22.5t-32.5 6.5q-20 0 -36.5 -4t-31.5 -9h-2l21 93q15 5 41 9t53 4q72 0 103 -28t31 -73z" />
    <glyph glyph-name="uni1EB3" unicode="&#x1eb3;" horiz-adv-x="1368" 
d="M19 0zM843 530q-96 -8 -180 -19t-143 -32q-61 -22 -93 -62t-32 -106q0 -58 42.5 -81.5t123.5 -23.5q53 0 113.5 24.5t113.5 62.5zM748 119q-34 -22 -82 -53t-89 -49q-56 -23 -105 -35t-136 -12q-140 0 -228.5 78.5t-88.5 204.5q0 133 63 225.5t187 147.5q116 52 276.5 75
t347.5 34q1 6 4 19.5t3 30.5q0 71 -66 99.5t-197 28.5q-89 0 -196.5 -30t-161.5 -50h-33l53 266q63 16 195 36t263 20q264 0 387.5 -69t123.5 -214q0 -20 -3.5 -52t-9.5 -56l-176 -764h-358zM1237 1636q-49 -192 -170 -286.5t-304 -94.5q-146 0 -230 64.5t-84 193.5
q0 31 3 57.5t12 65.5h217q-6 -24 -8.5 -44.5t-2.5 -35.5q0 -57 28 -90.5t100 -33.5q87 0 138 57.5t72 146.5h229zM1102 1839q0 -73 -55 -113.5t-117 -60.5l-14 -59h-178l26 112q50 12 86.5 37t36.5 64q0 23 -16.5 37t-49.5 14q-31 0 -49.5 -4.5t-44.5 -13.5h-3l27 115
q20 6 59.5 12t82.5 6q120 0 164.5 -41.5t44.5 -104.5z" />
    <glyph glyph-name="uni1EB4" unicode="&#x1eb4;" horiz-adv-x="1590" 
d="M0 0zM1451 0h-387l-34 304h-548l-174 -304h-401l893 1489h444zM1001 571l-60 535l-307 -535h367zM1444 1798q-29 -74 -127.5 -138t-284.5 -64q-198 0 -273 56t-75 121q0 6 0.5 11.5t1.5 13.5h212q-1 -5 -1.5 -10t-0.5 -8q0 -21 29.5 -34.5t125.5 -13.5q85 0 128.5 21
t52.5 45h212zM1480 2049q-18 -81 -85 -142t-189 -61q-37 0 -72.5 10t-70.5 26q-39 18 -58 24.5t-39 6.5q-29 0 -49.5 -16t-32.5 -51h-184q19 81 85.5 142t188.5 61q37 0 72.5 -9.5t71.5 -26.5q39 -18 57.5 -24.5t38.5 -6.5q29 0 50 16t32 51h184z" />
    <glyph glyph-name="uni1EB5" unicode="&#x1eb5;" horiz-adv-x="1368" 
d="M19 0zM843 530q-96 -8 -180 -19t-143 -32q-61 -22 -93 -62t-32 -106q0 -58 42.5 -81.5t123.5 -23.5q53 0 113.5 24.5t113.5 62.5zM748 119q-34 -22 -82 -53t-89 -49q-56 -23 -105 -35t-136 -12q-140 0 -228.5 78.5t-88.5 204.5q0 133 63 225.5t187 147.5q116 52 276.5 75
t347.5 34q1 6 4 19.5t3 30.5q0 71 -66 99.5t-197 28.5q-89 0 -196.5 -30t-161.5 -50h-33l53 266q63 16 195 36t263 20q264 0 387.5 -69t123.5 -214q0 -20 -3.5 -52t-9.5 -56l-176 -764h-358zM1237 1636q-49 -192 -170 -286.5t-304 -94.5q-146 0 -230 64.5t-84 193.5
q0 31 3 57.5t12 65.5h217q-6 -24 -8.5 -44.5t-2.5 -35.5q0 -57 28 -90.5t100 -33.5q87 0 138 57.5t72 146.5h229zM1388 2049q-28 -156 -113.5 -243.5t-216.5 -87.5q-60 0 -107.5 21t-101.5 57q-28 19 -49 28t-44 9q-47 0 -71 -31t-42 -91h-219q27 155 113.5 243t216.5 88
q62 0 108.5 -20.5t100.5 -57.5q29 -20 47.5 -28.5t45.5 -8.5q49 0 73 32t40 90h219z" />
    <glyph glyph-name="uni1EB6" unicode="&#x1eb6;" horiz-adv-x="1590" 
d="M0 0zM1451 0h-387l-34 304h-548l-174 -304h-401l893 1489h444zM1001 571l-60 535l-307 -535h367zM1480 2009q-49 -192 -170 -286.5t-304 -94.5q-146 0 -230 64.5t-84 193.5q0 31 3 57.5t12 65.5h217q-6 -24 -8.5 -44.5t-2.5 -35.5q0 -57 28 -90.5t100 -33.5
q87 0 138 57.5t72 146.5h229zM802 -423h-370l63 273h370z" />
    <glyph glyph-name="uni1EB7" unicode="&#x1eb7;" horiz-adv-x="1368" 
d="M19 0zM843 530q-96 -8 -180 -19t-143 -32q-61 -22 -93 -62t-32 -106q0 -58 42.5 -81.5t123.5 -23.5q53 0 113.5 24.5t113.5 62.5zM748 119q-34 -22 -82 -53t-89 -49q-56 -23 -105 -35t-136 -12q-140 0 -228.5 78.5t-88.5 204.5q0 133 63 225.5t187 147.5q116 52 276.5 75
t347.5 34q1 6 4 19.5t3 30.5q0 71 -66 99.5t-197 28.5q-89 0 -196.5 -30t-161.5 -50h-33l53 266q63 16 195 36t263 20q264 0 387.5 -69t123.5 -214q0 -20 -3.5 -52t-9.5 -56l-176 -764h-358zM1237 1636q-49 -192 -170 -286.5t-304 -94.5q-146 0 -230 64.5t-84 193.5
q0 31 3 57.5t12 65.5h217q-6 -24 -8.5 -44.5t-2.5 -35.5q0 -57 28 -90.5t100 -33.5q87 0 138 57.5t72 146.5h229zM670 -423h-370l63 273h370z" />
    <glyph glyph-name="uni1EB8" unicode="&#x1eb8;" horiz-adv-x="1399" 
d="M59 0zM1482 1489l-65 -282h-695l-62 -266h645l-66 -283h-645l-87 -376h695l-64 -282h-1079l344 1489h1079zM727 -423h-370l63 273h370z" />
    <glyph glyph-name="uni1EB9" unicode="&#x1eb9;" horiz-adv-x="1360" 
d="M75 0zM949 706q3 18 4.5 33t1.5 31q0 79 -49 121t-141 42q-111 0 -186.5 -60t-114.5 -167h485zM674 -30q-287 0 -443 127t-156 351q0 153 51 281t147 225q92 94 230 149t303 55q251 0 378.5 -101.5t127.5 -299.5q0 -68 -13.5 -133t-35.5 -129h-834v-11.5v-11.5
q0 -117 82 -183t251 -66q118 0 223.5 40t183.5 89h40l-67 -289q-105 -46 -221 -69.5t-247 -23.5zM733 -423h-370l63 273h370z" />
    <glyph glyph-name="uni1EBA" unicode="&#x1eba;" horiz-adv-x="1399" 
d="M59 0zM1482 1489l-65 -282h-695l-62 -266h645l-66 -283h-645l-87 -376h695l-64 -282h-1079l344 1489h1079zM1235 1903q0 -73 -55 -113.5t-117 -60.5l-14 -59h-178l26 112q50 12 86.5 37t36.5 64q0 23 -16.5 37t-49.5 14q-31 0 -49.5 -4.5t-44.5 -13.5h-3l27 115
q20 6 59.5 12t82.5 6q120 0 164.5 -41.5t44.5 -104.5z" />
    <glyph glyph-name="uni1EBB" unicode="&#x1ebb;" horiz-adv-x="1360" 
d="M75 0zM949 706q3 18 4.5 33t1.5 31q0 79 -49 121t-141 42q-111 0 -186.5 -60t-114.5 -167h485zM674 -30q-287 0 -443 127t-156 351q0 153 51 281t147 225q92 94 230 149t303 55q251 0 378.5 -101.5t127.5 -299.5q0 -68 -13.5 -133t-35.5 -129h-834v-11.5v-11.5
q0 -117 82 -183t251 -66q118 0 223.5 40t183.5 89h40l-67 -289q-105 -46 -221 -69.5t-247 -23.5zM1092 1530q0 -73 -55 -113.5t-117 -60.5l-14 -59h-178l26 112q50 12 86.5 37t36.5 64q0 23 -16.5 37t-49.5 14q-31 0 -49.5 -4.5t-44.5 -13.5h-3l27 115q20 6 59.5 12t82.5 6
q120 0 164.5 -41.5t44.5 -104.5z" />
    <glyph glyph-name="uni1EBC" unicode="&#x1ebc;" horiz-adv-x="1399" 
d="M59 0zM1482 1489l-65 -282h-695l-62 -266h645l-66 -283h-645l-87 -376h695l-64 -282h-1079l344 1489h1079zM1463 1991q-28 -156 -113.5 -243.5t-216.5 -87.5q-60 0 -107.5 21t-101.5 57q-27 19 -48.5 28t-44.5 9q-47 0 -71 -31t-42 -91h-219q27 155 113.5 243t216.5 88
q62 0 108.5 -20.5t100.5 -57.5q29 -20 47.5 -28.5t45.5 -8.5q49 0 73 32t40 90h219z" />
    <glyph glyph-name="uni1EBD" unicode="&#x1ebd;" horiz-adv-x="1360" 
d="M75 0zM949 706q3 18 4.5 33t1.5 31q0 79 -49 121t-141 42q-111 0 -186.5 -60t-114.5 -167h485zM674 -30q-287 0 -443 127t-156 351q0 153 51 281t147 225q92 94 230 149t303 55q251 0 378.5 -101.5t127.5 -299.5q0 -68 -13.5 -133t-35.5 -129h-834v-11.5v-11.5
q0 -117 82 -183t251 -66q118 0 223.5 40t183.5 89h40l-67 -289q-105 -46 -221 -69.5t-247 -23.5zM1297 1618q-28 -156 -113.5 -243.5t-216.5 -87.5q-60 0 -107.5 21t-101.5 57q-27 19 -48.5 28t-44.5 9q-47 0 -71 -31t-42 -91h-219q27 155 113.5 243t216.5 88
q62 0 108.5 -20.5t100.5 -57.5q29 -20 47.5 -28.5t45.5 -8.5q49 0 73 32t40 90h219z" />
    <glyph glyph-name="uni1EBE" unicode="&#x1ebe;" horiz-adv-x="1399" 
d="M59 0zM1482 1489l-65 -282h-695l-62 -266h645l-66 -283h-645l-87 -376h695l-64 -282h-1079l344 1489h1079zM1408 1656h-255l-134 219l-235 -219h-269l412 393h251zM1833 2049l-235 -266h-178l150 266h263z" />
    <glyph glyph-name="uni1EBF" unicode="&#x1ebf;" horiz-adv-x="1360" 
d="M75 0zM949 706q3 18 4.5 33t1.5 31q0 79 -49 121t-141 42q-111 0 -186.5 -60t-114.5 -167h485zM674 -30q-287 0 -443 127t-156 351q0 153 51 281t147 225q92 94 230 149t303 55q251 0 378.5 -101.5t127.5 -299.5q0 -68 -13.5 -133t-35.5 -129h-834v-11.5v-11.5
q0 -117 82 -183t251 -66q118 0 223.5 40t183.5 89h40l-67 -289q-105 -46 -221 -69.5t-247 -23.5zM1260 1283h-255l-134 219l-235 -219h-269l412 393h251zM1685 1676l-235 -266h-178l150 266h263z" />
    <glyph glyph-name="uni1EC0" unicode="&#x1ec0;" horiz-adv-x="1399" 
d="M59 0zM1482 1489l-65 -282h-695l-62 -266h645l-66 -283h-645l-87 -376h695l-64 -282h-1079l344 1489h1079zM1408 1656h-255l-134 219l-235 -219h-269l412 393h251zM565 1783h-177l-180 266h261z" />
    <glyph glyph-name="uni1EC1" unicode="&#x1ec1;" horiz-adv-x="1360" 
d="M60 0zM949 706q3 18 4.5 33t1.5 31q0 79 -49 121t-141 42q-111 0 -186.5 -60t-114.5 -167h485zM674 -30q-287 0 -443 127t-156 351q0 153 51 281t147 225q92 94 230 149t303 55q251 0 378.5 -101.5t127.5 -299.5q0 -68 -13.5 -133t-35.5 -129h-834v-11.5v-11.5
q0 -117 82 -183t251 -66q118 0 223.5 40t183.5 89h40l-67 -289q-105 -46 -221 -69.5t-247 -23.5zM1260 1283h-255l-134 219l-235 -219h-269l412 393h251zM417 1410h-177l-180 266h261z" />
    <glyph glyph-name="uni1EC2" unicode="&#x1ec2;" horiz-adv-x="1399" 
d="M59 0zM1482 1489l-65 -282h-695l-62 -266h645l-66 -283h-645l-87 -376h695l-64 -282h-1079l344 1489h1079zM1357 1638h-249l-131 171l-186 -171h-267l356 331h231zM1764 1903q0 -73 -55 -113.5t-117 -60.5l-14 -59h-178l26 112q50 12 86.5 37t36.5 64q0 23 -16.5 37
t-49.5 14q-31 0 -49.5 -4.5t-44.5 -13.5h-3l27 115q20 6 59.5 12t82.5 6q120 0 164.5 -41.5t44.5 -104.5z" />
    <glyph glyph-name="uni1EC3" unicode="&#x1ec3;" horiz-adv-x="1360" 
d="M75 0zM949 706q3 18 4.5 33t1.5 31q0 79 -49 121t-141 42q-111 0 -186.5 -60t-114.5 -167h485zM674 -30q-287 0 -443 127t-156 351q0 153 51 281t147 225q92 94 230 149t303 55q251 0 378.5 -101.5t127.5 -299.5q0 -68 -13.5 -133t-35.5 -129h-834v-11.5v-11.5
q0 -117 82 -183t251 -66q118 0 223.5 40t183.5 89h40l-67 -289q-105 -46 -221 -69.5t-247 -23.5zM1260 1283h-255l-134 219l-235 -219h-269l412 393h251zM1572 1728q0 -73 -55 -113.5t-117 -60.5l-14 -59h-178l26 112q50 12 86.5 37t36.5 64q0 23 -16.5 37t-49.5 14
q-31 0 -49.5 -4.5t-44.5 -13.5h-3l27 115q20 6 59.5 12t82.5 6q120 0 164.5 -41.5t44.5 -104.5z" />
    <glyph glyph-name="uni1EC4" unicode="&#x1ec4;" horiz-adv-x="1399" 
d="M59 0zM1482 1489l-65 -282h-695l-62 -266h645l-66 -283h-645l-87 -376h695l-64 -282h-1079l344 1489h1079zM1334 1596h-255l-119 83l-141 -83h-260l276 173h257zM1390 2049q-18 -81 -85.5 -147t-189.5 -66q-37 0 -72.5 10t-70.5 26q-39 18 -58 24.5t-39 6.5
q-29 0 -49.5 -16t-32.5 -51h-184q19 81 86 147t189 66q37 0 72.5 -9.5t71.5 -26.5q39 -18 57.5 -24.5t38.5 -6.5q29 0 50 16t32 51h184z" />
    <glyph glyph-name="uni1EC5" unicode="&#x1ec5;" horiz-adv-x="1360" 
d="M75 0zM949 706q3 18 4.5 33t1.5 31q0 79 -49 121t-141 42q-111 0 -186.5 -60t-114.5 -167h485zM674 -30q-287 0 -443 127t-156 351q0 153 51 281t147 225q92 94 230 149t303 55q251 0 378.5 -101.5t127.5 -299.5q0 -68 -13.5 -133t-35.5 -129h-834v-11.5v-11.5
q0 -117 82 -183t251 -66q118 0 223.5 40t183.5 89h40l-67 -289q-105 -46 -221 -69.5t-247 -23.5zM1260 1283h-255l-134 219l-235 -219h-269l412 393h251zM1407 2049q-28 -156 -113.5 -243.5t-216.5 -87.5q-60 0 -107.5 21t-101.5 57q-28 19 -49 28t-44 9q-47 0 -71 -31
t-42 -91h-219q27 155 113.5 243t216.5 88q62 0 108.5 -20.5t100.5 -57.5q29 -20 47.5 -28.5t45.5 -8.5q49 0 73 32t40 90h219z" />
    <glyph glyph-name="uni1EC6" unicode="&#x1ec6;" horiz-adv-x="1399" 
d="M59 0zM1482 1489l-65 -282h-695l-62 -266h645l-66 -283h-645l-87 -376h695l-64 -282h-1079l344 1489h1079zM1408 1656h-255l-134 219l-235 -219h-269l412 393h251zM727 -423h-370l63 273h370z" />
    <glyph glyph-name="uni1EC7" unicode="&#x1ec7;" horiz-adv-x="1360" 
d="M75 0zM949 706q3 18 4.5 33t1.5 31q0 79 -49 121t-141 42q-111 0 -186.5 -60t-114.5 -167h485zM674 -30q-287 0 -443 127t-156 351q0 153 51 281t147 225q92 94 230 149t303 55q251 0 378.5 -101.5t127.5 -299.5q0 -68 -13.5 -133t-35.5 -129h-834v-11.5v-11.5
q0 -117 82 -183t251 -66q118 0 223.5 40t183.5 89h40l-67 -289q-105 -46 -221 -69.5t-247 -23.5zM1260 1283h-255l-134 219l-235 -219h-269l412 393h251zM733 -423h-370l63 273h370z" />
    <glyph glyph-name="uni1EC8" unicode="&#x1ec8;" horiz-adv-x="1118" 
d="M0 0zM865 0h-872l61 264h243l222 961h-243l61 264h872l-61 -264h-243l-222 -961h243zM1081 1903q0 -73 -55 -113.5t-117 -60.5l-14 -59h-178l26 112q50 12 86.5 37t36.5 64q0 23 -16.5 37t-49.5 14q-31 0 -49.5 -4.5t-44.5 -13.5h-3l27 115q20 6 59.5 12t82.5 6
q120 0 164.5 -41.5t44.5 -104.5z" />
    <glyph glyph-name="uni1EC9" unicode="&#x1ec9;" horiz-adv-x="700" 
d="M40 0zM662 1123l-260 -1123h-362l260 1123h362zM769 1530q0 -73 -55 -113.5t-117 -60.5l-14 -59h-178l26 112q50 12 86.5 37t36.5 64q0 23 -16.5 37t-49.5 14q-31 0 -49.5 -4.5t-44.5 -13.5h-3l27 115q20 6 59.5 12t82.5 6q120 0 164.5 -41.5t44.5 -104.5z" />
    <glyph glyph-name="uni1ECA" unicode="&#x1eca;" horiz-adv-x="1118" 
d="M0 0zM865 0h-872l61 264h243l222 961h-243l61 264h872l-61 -264h-243l-222 -961h243zM556 -423h-370l63 273h370z" />
    <glyph glyph-name="uni1ECB" unicode="&#x1ecb;" horiz-adv-x="700" 
d="M0 0zM662 1123l-260 -1123h-362l260 1123h362zM772 1556l-63 -273h-382l63 273h382zM302 -423h-370l63 273h370z" />
    <glyph glyph-name="uni1ECC" unicode="&#x1ecc;" horiz-adv-x="1741" 
d="M118 0zM1707 935q0 -183 -62 -360t-180 -309q-129 -144 -301 -220.5t-396 -76.5q-305 0 -477.5 157.5t-172.5 433.5q0 194 66 369t189 308q120 129 297 206t386 77q306 0 478.5 -158t172.5 -427zM1158 427q68 89 106.5 206.5t38.5 270.5q0 160 -76.5 250.5t-218.5 90.5
q-93 0 -177.5 -42.5t-155.5 -129.5q-69 -83 -111 -206.5t-42 -277.5q0 -171 78.5 -258t217.5 -87q96 0 185 47.5t155 135.5zM870 -423h-370l63 273h370z" />
    <glyph glyph-name="uni1ECD" unicode="&#x1ecd;" horiz-adv-x="1404" 
d="M74 0zM1335 712q0 -158 -53 -296t-149 -237q-100 -103 -232 -158.5t-308 -55.5q-251 0 -385 120t-134 332q0 150 50 285t148 238q95 101 233.5 159.5t310.5 58.5q252 0 385.5 -118.5t133.5 -327.5zM867 344q46 70 69.5 153t23.5 202q0 103 -45 158.5t-143 55.5
q-76 0 -133.5 -37t-101.5 -105q-41 -63 -64.5 -156t-23.5 -191q0 -115 51 -164.5t140 -49.5q65 0 125 35.5t102 98.5zM705 -423h-370l63 273h370z" />
    <glyph glyph-name="uni1ECE" unicode="&#x1ece;" horiz-adv-x="1741" 
d="M118 0zM1707 935q0 -183 -62 -360t-180 -309q-129 -144 -301 -220.5t-396 -76.5q-305 0 -477.5 157.5t-172.5 433.5q0 194 66 369t189 308q120 129 297 206t386 77q306 0 478.5 -158t172.5 -427zM1158 427q68 89 106.5 206.5t38.5 270.5q0 160 -76.5 250.5t-218.5 90.5
q-93 0 -177.5 -42.5t-155.5 -129.5q-69 -83 -111 -206.5t-42 -277.5q0 -171 78.5 -258t217.5 -87q96 0 185 47.5t155 135.5zM1343 1903q0 -73 -55 -113.5t-117 -60.5l-14 -59h-178l26 112q50 12 86.5 37t36.5 64q0 23 -16.5 37t-49.5 14q-31 0 -49.5 -4.5t-44.5 -13.5h-3
l27 115q20 6 59.5 12t82.5 6q120 0 164.5 -41.5t44.5 -104.5z" />
    <glyph glyph-name="uni1ECF" unicode="&#x1ecf;" horiz-adv-x="1404" 
d="M74 0zM1335 712q0 -158 -53 -296t-149 -237q-100 -103 -232 -158.5t-308 -55.5q-251 0 -385 120t-134 332q0 150 50 285t148 238q95 101 233.5 159.5t310.5 58.5q252 0 385.5 -118.5t133.5 -327.5zM867 344q46 70 69.5 153t23.5 202q0 103 -45 158.5t-143 55.5
q-76 0 -133.5 -37t-101.5 -105q-41 -63 -64.5 -156t-23.5 -191q0 -115 51 -164.5t140 -49.5q65 0 125 35.5t102 98.5zM1091 1530q0 -73 -55 -113.5t-117 -60.5l-14 -59h-178l26 112q50 12 86.5 37t36.5 64q0 23 -16.5 37t-49.5 14q-31 0 -49.5 -4.5t-44.5 -13.5h-3l27 115
q20 6 59.5 12t82.5 6q120 0 164.5 -41.5t44.5 -104.5z" />
    <glyph glyph-name="uni1ED0" unicode="&#x1ed0;" horiz-adv-x="1741" 
d="M118 0zM1707 935q0 -183 -62 -360t-180 -309q-129 -144 -301 -220.5t-396 -76.5q-305 0 -477.5 157.5t-172.5 433.5q0 194 66 369t189 308q120 129 297 206t386 77q306 0 478.5 -158t172.5 -427zM1158 427q68 89 106.5 206.5t38.5 270.5q0 160 -76.5 250.5t-218.5 90.5
q-93 0 -177.5 -42.5t-155.5 -129.5q-69 -83 -111 -206.5t-42 -277.5q0 -171 78.5 -258t217.5 -87q96 0 185 47.5t155 135.5zM1501 1656h-255l-134 219l-235 -219h-269l412 393h251zM1926 2049l-235 -266h-178l150 266h263z" />
    <glyph glyph-name="uni1ED1" unicode="&#x1ed1;" horiz-adv-x="1404" 
d="M74 0zM1335 712q0 -158 -53 -296t-149 -237q-100 -103 -232 -158.5t-308 -55.5q-251 0 -385 120t-134 332q0 150 50 285t148 238q95 101 233.5 159.5t310.5 58.5q252 0 385.5 -118.5t133.5 -327.5zM867 344q46 70 69.5 153t23.5 202q0 103 -45 158.5t-143 55.5
q-76 0 -133.5 -37t-101.5 -105q-41 -63 -64.5 -156t-23.5 -191q0 -115 51 -164.5t140 -49.5q65 0 125 35.5t102 98.5zM1263 1283h-255l-134 219l-235 -219h-269l412 393h251zM1688 1676l-235 -266h-178l150 266h263z" />
    <glyph glyph-name="uni1ED2" unicode="&#x1ed2;" horiz-adv-x="1741" 
d="M118 0zM1707 935q0 -183 -62 -360t-180 -309q-129 -144 -301 -220.5t-396 -76.5q-305 0 -477.5 157.5t-172.5 433.5q0 194 66 369t189 308q120 129 297 206t386 77q306 0 478.5 -158t172.5 -427zM1158 427q68 89 106.5 206.5t38.5 270.5q0 160 -76.5 250.5t-218.5 90.5
q-93 0 -177.5 -42.5t-155.5 -129.5q-69 -83 -111 -206.5t-42 -277.5q0 -171 78.5 -258t217.5 -87q96 0 185 47.5t155 135.5zM1501 1656h-255l-134 219l-235 -219h-269l412 393h251zM658 1783h-177l-180 266h261z" />
    <glyph glyph-name="uni1ED3" unicode="&#x1ed3;" horiz-adv-x="1404" 
d="M63 0zM1335 712q0 -158 -53 -296t-149 -237q-100 -103 -232 -158.5t-308 -55.5q-251 0 -385 120t-134 332q0 150 50 285t148 238q95 101 233.5 159.5t310.5 58.5q252 0 385.5 -118.5t133.5 -327.5zM867 344q46 70 69.5 153t23.5 202q0 103 -45 158.5t-143 55.5
q-76 0 -133.5 -37t-101.5 -105q-41 -63 -64.5 -156t-23.5 -191q0 -115 51 -164.5t140 -49.5q65 0 125 35.5t102 98.5zM1263 1283h-255l-134 219l-235 -219h-269l412 393h251zM420 1410h-177l-180 266h261z" />
    <glyph glyph-name="uni1ED4" unicode="&#x1ed4;" horiz-adv-x="1741" 
d="M118 0zM1707 935q0 -183 -62 -360t-180 -309q-129 -144 -301 -220.5t-396 -76.5q-305 0 -477.5 157.5t-172.5 433.5q0 194 66 369t189 308q120 129 297 206t386 77q306 0 478.5 -158t172.5 -427zM1158 427q68 89 106.5 206.5t38.5 270.5q0 160 -76.5 250.5t-218.5 90.5
q-93 0 -177.5 -42.5t-155.5 -129.5q-69 -83 -111 -206.5t-42 -277.5q0 -171 78.5 -258t217.5 -87q96 0 185 47.5t155 135.5zM1470 1638h-249l-131 171l-186 -171h-267l356 331h231zM1877 1903q0 -73 -55 -113.5t-117 -60.5l-14 -59h-178l26 112q50 12 86.5 37t36.5 64
q0 23 -16.5 37t-49.5 14q-31 0 -49.5 -4.5t-44.5 -13.5h-3l27 115q20 6 59.5 12t82.5 6q120 0 164.5 -41.5t44.5 -104.5z" />
    <glyph glyph-name="uni1ED5" unicode="&#x1ed5;" horiz-adv-x="1404" 
d="M74 0zM1335 712q0 -158 -53 -296t-149 -237q-100 -103 -232 -158.5t-308 -55.5q-251 0 -385 120t-134 332q0 150 50 285t148 238q95 101 233.5 159.5t310.5 58.5q252 0 385.5 -118.5t133.5 -327.5zM867 344q46 70 69.5 153t23.5 202q0 103 -45 158.5t-143 55.5
q-76 0 -133.5 -37t-101.5 -105q-41 -63 -64.5 -156t-23.5 -191q0 -115 51 -164.5t140 -49.5q65 0 125 35.5t102 98.5zM1263 1283h-255l-134 219l-235 -219h-269l412 393h251zM1575 1728q0 -73 -55 -113.5t-117 -60.5l-14 -59h-178l26 112q50 12 86.5 37t36.5 64
q0 23 -16.5 37t-49.5 14q-31 0 -49.5 -4.5t-44.5 -13.5h-3l27 115q20 6 59.5 12t82.5 6q120 0 164.5 -41.5t44.5 -104.5z" />
    <glyph glyph-name="uni1ED6" unicode="&#x1ed6;" horiz-adv-x="1741" 
d="M118 0zM1707 935q0 -183 -62 -360t-180 -309q-129 -144 -301 -220.5t-396 -76.5q-305 0 -477.5 157.5t-172.5 433.5q0 194 66 369t189 308q120 129 297 206t386 77q306 0 478.5 -158t172.5 -427zM1158 427q68 89 106.5 206.5t38.5 270.5q0 160 -76.5 250.5t-218.5 90.5
q-93 0 -177.5 -42.5t-155.5 -129.5q-69 -83 -111 -206.5t-42 -277.5q0 -171 78.5 -258t217.5 -87q96 0 185 47.5t155 135.5zM1447 1596h-255l-119 83l-141 -83h-260l276 173h257zM1503 2049q-18 -81 -85.5 -147t-189.5 -66q-37 0 -72.5 10t-70.5 26q-39 18 -58 24.5t-39 6.5
q-29 0 -49.5 -16t-32.5 -51h-184q19 81 86 147t189 66q37 0 72.5 -9.5t71.5 -26.5q39 -18 57.5 -24.5t38.5 -6.5q29 0 50 16t32 51h184z" />
    <glyph glyph-name="uni1ED7" unicode="&#x1ed7;" horiz-adv-x="1404" 
d="M74 0zM1335 712q0 -158 -53 -296t-149 -237q-100 -103 -232 -158.5t-308 -55.5q-251 0 -385 120t-134 332q0 150 50 285t148 238q95 101 233.5 159.5t310.5 58.5q252 0 385.5 -118.5t133.5 -327.5zM867 344q46 70 69.5 153t23.5 202q0 103 -45 158.5t-143 55.5
q-76 0 -133.5 -37t-101.5 -105q-41 -63 -64.5 -156t-23.5 -191q0 -115 51 -164.5t140 -49.5q65 0 125 35.5t102 98.5zM1263 1283h-255l-134 219l-235 -219h-269l412 393h251zM1410 2049q-28 -156 -113.5 -243.5t-216.5 -87.5q-60 0 -107.5 21t-101.5 57q-28 19 -49 28t-44 9
q-47 0 -71 -31t-42 -91h-219q27 155 113.5 243t216.5 88q62 0 108.5 -20.5t100.5 -57.5q29 -20 47.5 -28.5t45.5 -8.5q49 0 73 32t40 90h219z" />
    <glyph glyph-name="uni1ED8" unicode="&#x1ed8;" horiz-adv-x="1741" 
d="M118 0zM1707 935q0 -183 -62 -360t-180 -309q-129 -144 -301 -220.5t-396 -76.5q-305 0 -477.5 157.5t-172.5 433.5q0 194 66 369t189 308q120 129 297 206t386 77q306 0 478.5 -158t172.5 -427zM1158 427q68 89 106.5 206.5t38.5 270.5q0 160 -76.5 250.5t-218.5 90.5
q-93 0 -177.5 -42.5t-155.5 -129.5q-69 -83 -111 -206.5t-42 -277.5q0 -171 78.5 -258t217.5 -87q96 0 185 47.5t155 135.5zM1501 1656h-255l-134 219l-235 -219h-269l412 393h251zM870 -423h-370l63 273h370z" />
    <glyph glyph-name="uni1ED9" unicode="&#x1ed9;" horiz-adv-x="1404" 
d="M74 0zM1335 712q0 -158 -53 -296t-149 -237q-100 -103 -232 -158.5t-308 -55.5q-251 0 -385 120t-134 332q0 150 50 285t148 238q95 101 233.5 159.5t310.5 58.5q252 0 385.5 -118.5t133.5 -327.5zM867 344q46 70 69.5 153t23.5 202q0 103 -45 158.5t-143 55.5
q-76 0 -133.5 -37t-101.5 -105q-41 -63 -64.5 -156t-23.5 -191q0 -115 51 -164.5t140 -49.5q65 0 125 35.5t102 98.5zM1263 1283h-255l-134 219l-235 -219h-269l412 393h251zM705 -423h-370l63 273h370z" />
    <glyph glyph-name="uni1EDA" unicode="&#x1eda;" horiz-adv-x="1871" 
d="M118 0zM1707 935q0 -183 -62 -360t-180 -309q-129 -144 -301 -220.5t-396 -76.5q-305 0 -477.5 157.5t-172.5 433.5q0 194 66 369t189 308q120 129 297 206t386 77q230 0 385 -90t223 -254q106 11 153 95.5t61 217.5h221q-20 -253 -131.5 -369.5t-263.5 -127.5
q2 -14 2.5 -28.5t0.5 -28.5zM1158 427q68 89 106.5 206.5t38.5 270.5q0 160 -76.5 250.5t-218.5 90.5q-93 0 -177.5 -42.5t-155.5 -129.5q-69 -83 -111 -206.5t-42 -277.5q0 -171 78.5 -258t217.5 -87q96 0 185 47.5t155 135.5zM1741 0zM1519 2029l-438 -373h-256l313 393
h381v-20z" />
    <glyph glyph-name="uni1EDB" unicode="&#x1edb;" horiz-adv-x="1404" 
d="M74 0zM1335 712q0 -158 -53 -296t-149 -237q-100 -103 -232 -158.5t-308 -55.5q-251 0 -385 120t-134 332q0 150 50 285t148 238q95 101 233.5 159.5t310.5 58.5q68 0 128 -9t111 -26q111 12 161.5 96t64.5 217h221q-15 -189 -77.5 -295.5t-169.5 -160.5
q41 -55 60.5 -121.5t19.5 -146.5zM867 344q46 70 69.5 153t23.5 202q0 103 -45 158.5t-143 55.5q-76 0 -133.5 -37t-101.5 -105q-41 -63 -64.5 -156t-23.5 -191q0 -115 51 -164.5t140 -49.5q65 0 125 35.5t102 98.5zM1303 1656l-438 -373h-256l313 393h381v-20z" />
    <glyph glyph-name="uni1EDC" unicode="&#x1edc;" horiz-adv-x="1871" 
d="M118 0zM1707 935q0 -183 -62 -360t-180 -309q-129 -144 -301 -220.5t-396 -76.5q-305 0 -477.5 157.5t-172.5 433.5q0 194 66 369t189 308q120 129 297 206t386 77q230 0 385 -90t223 -254q106 11 153 95.5t61 217.5h221q-20 -253 -131.5 -369.5t-263.5 -127.5
q2 -14 2.5 -28.5t0.5 -28.5zM1158 427q68 89 106.5 206.5t38.5 270.5q0 160 -76.5 250.5t-218.5 90.5q-93 0 -177.5 -42.5t-155.5 -129.5q-69 -83 -111 -206.5t-42 -277.5q0 -171 78.5 -258t217.5 -87q96 0 185 47.5t155 135.5zM1741 0zM1228 1656h-226l-286 373v20h341z
" />
    <glyph glyph-name="uni1EDD" unicode="&#x1edd;" horiz-adv-x="1404" 
d="M74 0zM1335 712q0 -158 -53 -296t-149 -237q-100 -103 -232 -158.5t-308 -55.5q-251 0 -385 120t-134 332q0 150 50 285t148 238q95 101 233.5 159.5t310.5 58.5q68 0 128 -9t111 -26q111 12 161.5 96t64.5 217h221q-15 -189 -77.5 -295.5t-169.5 -160.5
q41 -55 60.5 -121.5t19.5 -146.5zM867 344q46 70 69.5 153t23.5 202q0 103 -45 158.5t-143 55.5q-76 0 -133.5 -37t-101.5 -105q-41 -63 -64.5 -156t-23.5 -191q0 -115 51 -164.5t140 -49.5q65 0 125 35.5t102 98.5zM1030 1283h-226l-286 373v20h341z" />
    <glyph glyph-name="uni1EDE" unicode="&#x1ede;" horiz-adv-x="1871" 
d="M118 0zM1707 935q0 -183 -62 -360t-180 -309q-129 -144 -301 -220.5t-396 -76.5q-305 0 -477.5 157.5t-172.5 433.5q0 194 66 369t189 308q120 129 297 206t386 77q230 0 385 -90t223 -254q106 11 153 95.5t61 217.5h221q-20 -253 -131.5 -369.5t-263.5 -127.5
q2 -14 2.5 -28.5t0.5 -28.5zM1158 427q68 89 106.5 206.5t38.5 270.5q0 160 -76.5 250.5t-218.5 90.5q-93 0 -177.5 -42.5t-155.5 -129.5q-69 -83 -111 -206.5t-42 -277.5q0 -171 78.5 -258t217.5 -87q96 0 185 47.5t155 135.5zM1741 0zM1343 1903q0 -73 -55 -113.5
t-117 -60.5l-14 -59h-178l26 112q50 12 86.5 37t36.5 64q0 23 -16.5 37t-49.5 14q-31 0 -49.5 -4.5t-44.5 -13.5h-3l27 115q20 6 59.5 12t82.5 6q120 0 164.5 -41.5t44.5 -104.5z" />
    <glyph glyph-name="uni1EDF" unicode="&#x1edf;" horiz-adv-x="1404" 
d="M74 0zM1335 712q0 -158 -53 -296t-149 -237q-100 -103 -232 -158.5t-308 -55.5q-251 0 -385 120t-134 332q0 150 50 285t148 238q95 101 233.5 159.5t310.5 58.5q68 0 128 -9t111 -26q111 12 161.5 96t64.5 217h221q-15 -189 -77.5 -295.5t-169.5 -160.5
q41 -55 60.5 -121.5t19.5 -146.5zM867 344q46 70 69.5 153t23.5 202q0 103 -45 158.5t-143 55.5q-76 0 -133.5 -37t-101.5 -105q-41 -63 -64.5 -156t-23.5 -191q0 -115 51 -164.5t140 -49.5q65 0 125 35.5t102 98.5zM1091 1530q0 -73 -55 -113.5t-117 -60.5l-14 -59h-178
l26 112q50 12 86.5 37t36.5 64q0 23 -16.5 37t-49.5 14q-31 0 -49.5 -4.5t-44.5 -13.5h-3l27 115q20 6 59.5 12t82.5 6q120 0 164.5 -41.5t44.5 -104.5z" />
    <glyph glyph-name="uni1EE0" unicode="&#x1ee0;" horiz-adv-x="1871" 
d="M118 0zM1707 935q0 -183 -62 -360t-180 -309q-129 -144 -301 -220.5t-396 -76.5q-305 0 -477.5 157.5t-172.5 433.5q0 194 66 369t189 308q120 129 297 206t386 77q230 0 385 -90t223 -254q106 11 153 95.5t61 217.5h221q-20 -253 -131.5 -369.5t-263.5 -127.5
q2 -14 2.5 -28.5t0.5 -28.5zM1158 427q68 89 106.5 206.5t38.5 270.5q0 160 -76.5 250.5t-218.5 90.5q-93 0 -177.5 -42.5t-155.5 -129.5q-69 -83 -111 -206.5t-42 -277.5q0 -171 78.5 -258t217.5 -87q96 0 185 47.5t155 135.5zM1741 0zM1571 1991q-28 -156 -113.5 -243.5
t-216.5 -87.5q-60 0 -107.5 21t-101.5 57q-27 19 -48.5 28t-44.5 9q-47 0 -71 -31t-42 -91h-219q27 155 113.5 243t216.5 88q62 0 108.5 -20.5t100.5 -57.5q29 -20 47.5 -28.5t45.5 -8.5q49 0 73 32t40 90h219z" />
    <glyph glyph-name="uni1EE1" unicode="&#x1ee1;" horiz-adv-x="1404" 
d="M74 0zM1335 712q0 -158 -53 -296t-149 -237q-100 -103 -232 -158.5t-308 -55.5q-251 0 -385 120t-134 332q0 150 50 285t148 238q95 101 233.5 159.5t310.5 58.5q68 0 128 -9t111 -26q111 12 161.5 96t64.5 217h221q-15 -189 -77.5 -295.5t-169.5 -160.5
q41 -55 60.5 -121.5t19.5 -146.5zM867 344q46 70 69.5 153t23.5 202q0 103 -45 158.5t-143 55.5q-76 0 -133.5 -37t-101.5 -105q-41 -63 -64.5 -156t-23.5 -191q0 -115 51 -164.5t140 -49.5q65 0 125 35.5t102 98.5zM1268 1618q-28 -156 -113.5 -243.5t-216.5 -87.5
q-60 0 -107.5 21t-101.5 57q-27 19 -48.5 28t-44.5 9q-47 0 -71 -31t-42 -91h-219q27 155 113.5 243t216.5 88q62 0 108.5 -20.5t100.5 -57.5q29 -20 47.5 -28.5t45.5 -8.5q49 0 73 32t40 90h219z" />
    <glyph glyph-name="uni1EE2" unicode="&#x1ee2;" horiz-adv-x="1871" 
d="M118 0zM1707 935q0 -183 -62 -360t-180 -309q-129 -144 -301 -220.5t-396 -76.5q-305 0 -477.5 157.5t-172.5 433.5q0 194 66 369t189 308q120 129 297 206t386 77q230 0 385 -90t223 -254q106 11 153 95.5t61 217.5h221q-20 -253 -131.5 -369.5t-263.5 -127.5
q2 -14 2.5 -28.5t0.5 -28.5zM1158 427q68 89 106.5 206.5t38.5 270.5q0 160 -76.5 250.5t-218.5 90.5q-93 0 -177.5 -42.5t-155.5 -129.5q-69 -83 -111 -206.5t-42 -277.5q0 -171 78.5 -258t217.5 -87q96 0 185 47.5t155 135.5zM1741 0zM870 -423h-370l63 273h370z" />
    <glyph glyph-name="uni1EE3" unicode="&#x1ee3;" horiz-adv-x="1404" 
d="M74 0zM1335 712q0 -158 -53 -296t-149 -237q-100 -103 -232 -158.5t-308 -55.5q-251 0 -385 120t-134 332q0 150 50 285t148 238q95 101 233.5 159.5t310.5 58.5q68 0 128 -9t111 -26q111 12 161.5 96t64.5 217h221q-15 -189 -77.5 -295.5t-169.5 -160.5
q41 -55 60.5 -121.5t19.5 -146.5zM867 344q46 70 69.5 153t23.5 202q0 103 -45 158.5t-143 55.5q-76 0 -133.5 -37t-101.5 -105q-41 -63 -64.5 -156t-23.5 -191q0 -115 51 -164.5t140 -49.5q65 0 125 35.5t102 98.5zM705 -423h-370l63 273h370z" />
    <glyph glyph-name="uni1EE4" unicode="&#x1ee4;" horiz-adv-x="1663" 
d="M147 0zM1710 1489l-216 -930q-73 -309 -247 -448.5t-504 -139.5q-294 0 -445 105.5t-151 319.5q0 44 7 89t15 82l214 922h388l-214 -923q-7 -28 -11.5 -61.5t-4.5 -55.5q0 -94 56.5 -142.5t187.5 -48.5q127 0 205.5 70t112.5 218l219 943h388zM825 -423h-370l63 273h370z
" />
    <glyph glyph-name="uni1EE5" unicode="&#x1ee5;" horiz-adv-x="1459" 
d="M104 0zM1420 1123l-260 -1123h-362l29 124q-54 -35 -105.5 -65.5t-97.5 -48.5q-58 -24 -106 -32.5t-95 -8.5q-148 0 -233.5 71t-85.5 210q0 38 4 70.5t13 71.5l169 731h364l-129 -557q-15 -64 -22.5 -110t-7.5 -78q0 -66 32 -95.5t121 -29.5q44 0 101.5 19t124.5 55
l184 796h362zM710 -423h-370l63 273h370z" />
    <glyph glyph-name="uni1EE6" unicode="&#x1ee6;" horiz-adv-x="1663" 
d="M147 0zM1710 1489l-216 -930q-73 -309 -247 -448.5t-504 -139.5q-294 0 -445 105.5t-151 319.5q0 44 7 89t15 82l214 922h388l-214 -923q-7 -28 -11.5 -61.5t-4.5 -55.5q0 -94 56.5 -142.5t187.5 -48.5q127 0 205.5 70t112.5 218l219 943h388zM1360 1903
q0 -73 -55 -113.5t-117 -60.5l-14 -59h-178l26 112q50 12 86.5 37t36.5 64q0 23 -16.5 37t-49.5 14q-31 0 -49.5 -4.5t-44.5 -13.5h-3l27 115q20 6 59.5 12t82.5 6q120 0 164.5 -41.5t44.5 -104.5z" />
    <glyph glyph-name="uni1EE7" unicode="&#x1ee7;" horiz-adv-x="1459" 
d="M104 0zM1420 1123l-260 -1123h-362l29 124q-54 -35 -105.5 -65.5t-97.5 -48.5q-58 -24 -106 -32.5t-95 -8.5q-148 0 -233.5 71t-85.5 210q0 38 4 70.5t13 71.5l169 731h364l-129 -557q-15 -64 -22.5 -110t-7.5 -78q0 -66 32 -95.5t121 -29.5q44 0 101.5 19t124.5 55
l184 796h362zM1160 1530q0 -73 -55 -113.5t-117 -60.5l-14 -59h-178l26 112q50 12 86.5 37t36.5 64q0 23 -16.5 37t-49.5 14q-31 0 -49.5 -4.5t-44.5 -13.5h-3l27 115q20 6 59.5 12t82.5 6q120 0 164.5 -41.5t44.5 -104.5z" />
    <glyph glyph-name="uni1EE8" unicode="&#x1ee8;" horiz-adv-x="1733" 
d="M147 0zM1667 1305l-173 -746q-73 -309 -247 -448.5t-504 -139.5q-294 0 -445 105.5t-151 319.5q0 44 7 89t15 82l214 922h388l-214 -923q-7 -28 -11.5 -61.5t-4.5 -55.5q0 -94 56.5 -142.5t187.5 -48.5q127 0 205.5 70t112.5 218l219 943h249q154 0 205 90t65 223h221
q-20 -253 -131.5 -369.5t-263.5 -127.5zM1663 0zM1509 2029l-438 -373h-256l313 393h381v-20z" />
    <glyph glyph-name="uni1EE9" unicode="&#x1ee9;" horiz-adv-x="1519" 
d="M104 0zM1378 939l-218 -939h-362l29 124q-54 -35 -105.5 -65.5t-97.5 -48.5q-58 -24 -106 -32.5t-95 -8.5q-148 0 -233.5 71t-85.5 210q0 38 4 70.5t13 71.5l169 731h364l-129 -557q-15 -64 -22.5 -110t-7.5 -78q0 -66 32 -95.5t121 -29.5q44 0 101.5 19t124.5 55
l184 796h224q154 0 205 90t65 223h221q-20 -253 -131.5 -369.5t-263.5 -127.5zM1459 0zM1398 1656l-438 -373h-256l313 393h381v-20z" />
    <glyph glyph-name="uni1EEA" unicode="&#x1eea;" horiz-adv-x="1733" 
d="M147 0zM1667 1305l-173 -746q-73 -309 -247 -448.5t-504 -139.5q-294 0 -445 105.5t-151 319.5q0 44 7 89t15 82l214 922h388l-214 -923q-7 -28 -11.5 -61.5t-4.5 -55.5q0 -94 56.5 -142.5t187.5 -48.5q127 0 205.5 70t112.5 218l219 943h249q154 0 205 90t65 223h221
q-20 -253 -131.5 -369.5t-263.5 -127.5zM1663 0zM1265 1656h-226l-286 373v20h341z" />
    <glyph glyph-name="uni1EEB" unicode="&#x1eeb;" horiz-adv-x="1519" 
d="M104 0zM1378 939l-218 -939h-362l29 124q-54 -35 -105.5 -65.5t-97.5 -48.5q-58 -24 -106 -32.5t-95 -8.5q-148 0 -233.5 71t-85.5 210q0 38 4 70.5t13 71.5l169 731h364l-129 -557q-15 -64 -22.5 -110t-7.5 -78q0 -66 32 -95.5t121 -29.5q44 0 101.5 19t124.5 55
l184 796h224q154 0 205 90t65 223h221q-20 -253 -131.5 -369.5t-263.5 -127.5zM1459 0zM1035 1283h-226l-286 373v20h341z" />
    <glyph glyph-name="uni1EEC" unicode="&#x1eec;" horiz-adv-x="1733" 
d="M147 0zM1667 1305l-173 -746q-73 -309 -247 -448.5t-504 -139.5q-294 0 -445 105.5t-151 319.5q0 44 7 89t15 82l214 922h388l-214 -923q-7 -28 -11.5 -61.5t-4.5 -55.5q0 -94 56.5 -142.5t187.5 -48.5q127 0 205.5 70t112.5 218l219 943h249q154 0 205 90t65 223h221
q-20 -253 -131.5 -369.5t-263.5 -127.5zM1663 0zM1360 1903q0 -73 -55 -113.5t-117 -60.5l-14 -59h-178l26 112q50 12 86.5 37t36.5 64q0 23 -16.5 37t-49.5 14q-31 0 -49.5 -4.5t-44.5 -13.5h-3l27 115q20 6 59.5 12t82.5 6q120 0 164.5 -41.5t44.5 -104.5z" />
    <glyph glyph-name="uni1EED" unicode="&#x1eed;" horiz-adv-x="1519" 
d="M104 0zM1378 939l-218 -939h-362l29 124q-54 -35 -105.5 -65.5t-97.5 -48.5q-58 -24 -106 -32.5t-95 -8.5q-148 0 -233.5 71t-85.5 210q0 38 4 70.5t13 71.5l169 731h364l-129 -557q-15 -64 -22.5 -110t-7.5 -78q0 -66 32 -95.5t121 -29.5q44 0 101.5 19t124.5 55
l184 796h224q154 0 205 90t65 223h221q-20 -253 -131.5 -369.5t-263.5 -127.5zM1459 0zM1160 1530q0 -73 -55 -113.5t-117 -60.5l-14 -59h-178l26 112q50 12 86.5 37t36.5 64q0 23 -16.5 37t-49.5 14q-31 0 -49.5 -4.5t-44.5 -13.5h-3l27 115q20 6 59.5 12t82.5 6
q120 0 164.5 -41.5t44.5 -104.5z" />
    <glyph glyph-name="uni1EEE" unicode="&#x1eee;" horiz-adv-x="1733" 
d="M147 0zM1667 1305l-173 -746q-73 -309 -247 -448.5t-504 -139.5q-294 0 -445 105.5t-151 319.5q0 44 7 89t15 82l214 922h388l-214 -923q-7 -28 -11.5 -61.5t-4.5 -55.5q0 -94 56.5 -142.5t187.5 -48.5q127 0 205.5 70t112.5 218l219 943h249q154 0 205 90t65 223h221
q-20 -253 -131.5 -369.5t-263.5 -127.5zM1663 0zM1573 1991q-28 -156 -113.5 -243.5t-216.5 -87.5q-60 0 -107.5 21t-101.5 57q-27 19 -48.5 28t-44.5 9q-47 0 -71 -31t-42 -91h-219q27 155 113.5 243t216.5 88q62 0 108.5 -20.5t100.5 -57.5q29 -20 47.5 -28.5t45.5 -8.5
q49 0 73 32t40 90h219z" />
    <glyph glyph-name="uni1EEF" unicode="&#x1eef;" horiz-adv-x="1519" 
d="M104 0zM1378 939l-218 -939h-362l29 124q-54 -35 -105.5 -65.5t-97.5 -48.5q-58 -24 -106 -32.5t-95 -8.5q-148 0 -233.5 71t-85.5 210q0 38 4 70.5t13 71.5l169 731h364l-129 -557q-15 -64 -22.5 -110t-7.5 -78q0 -66 32 -95.5t121 -29.5q44 0 101.5 19t124.5 55
l184 796h224q154 0 205 90t65 223h221q-20 -253 -131.5 -369.5t-263.5 -127.5zM1459 0zM1420 1618q-28 -156 -113.5 -243.5t-216.5 -87.5q-60 0 -107.5 21t-101.5 57q-27 19 -48.5 28t-44.5 9q-47 0 -71 -31t-42 -91h-219q27 155 113.5 243t216.5 88q62 0 108.5 -20.5
t100.5 -57.5q29 -20 47.5 -28.5t45.5 -8.5q49 0 73 32t40 90h219z" />
    <glyph glyph-name="uni1EF0" unicode="&#x1ef0;" horiz-adv-x="1733" 
d="M147 0zM1667 1305l-173 -746q-73 -309 -247 -448.5t-504 -139.5q-294 0 -445 105.5t-151 319.5q0 44 7 89t15 82l214 922h388l-214 -923q-7 -28 -11.5 -61.5t-4.5 -55.5q0 -94 56.5 -142.5t187.5 -48.5q127 0 205.5 70t112.5 218l219 943h249q154 0 205 90t65 223h221
q-20 -253 -131.5 -369.5t-263.5 -127.5zM1663 0zM825 -423h-370l63 273h370z" />
    <glyph glyph-name="uni1EF1" unicode="&#x1ef1;" horiz-adv-x="1519" 
d="M104 0zM1378 939l-218 -939h-362l29 124q-54 -35 -105.5 -65.5t-97.5 -48.5q-58 -24 -106 -32.5t-95 -8.5q-148 0 -233.5 71t-85.5 210q0 38 4 70.5t13 71.5l169 731h364l-129 -557q-15 -64 -22.5 -110t-7.5 -78q0 -66 32 -95.5t121 -29.5q44 0 101.5 19t124.5 55
l184 796h224q154 0 205 90t65 223h221q-20 -253 -131.5 -369.5t-263.5 -127.5zM1459 0zM710 -423h-370l63 273h370z" />
    <glyph glyph-name="Ygrave" unicode="&#x1ef2;" horiz-adv-x="1509" 
d="M224 0zM1715 1489l-759 -913l-133 -576h-386l129 558l-342 931h411l191 -583l445 583h444zM1152 1656h-226l-286 373v20h341z" />
    <glyph glyph-name="ygrave" unicode="&#x1ef3;" horiz-adv-x="1333" 
d="M59 0zM454 -412h-395l286 434l-185 1101h368l97 -736l428 736h380zM985 1283h-226l-286 373v20h341z" />
    <glyph glyph-name="uni1EF4" unicode="&#x1ef4;" horiz-adv-x="1509" 
d="M224 0zM1715 1489l-759 -913l-133 -576h-386l129 558l-342 931h411l191 -583l445 583h444zM726 -423h-370l63 273h370z" />
    <glyph glyph-name="uni1EF5" unicode="&#x1ef5;" horiz-adv-x="1333" 
d="M59 0zM454 -412h-395l286 434l-185 1101h368l97 -736l428 736h380zM1079 -423h-370l63 273h370z" />
    <glyph glyph-name="uni1EF6" unicode="&#x1ef6;" horiz-adv-x="1509" 
d="M224 0zM1715 1489l-759 -913l-133 -576h-386l129 558l-342 931h411l191 -583l445 583h444zM1239 1903q0 -73 -55 -113.5t-117 -60.5l-14 -59h-178l26 112q50 12 86.5 37t36.5 64q0 23 -16.5 37t-49.5 14q-31 0 -49.5 -4.5t-44.5 -13.5h-3l27 115q20 6 59.5 12t82.5 6
q120 0 164.5 -41.5t44.5 -104.5z" />
    <glyph glyph-name="uni1EF7" unicode="&#x1ef7;" horiz-adv-x="1333" 
d="M59 0zM454 -412h-395l286 434l-185 1101h368l97 -736l428 736h380zM1080 1530q0 -73 -55 -113.5t-117 -60.5l-14 -59h-178l26 112q50 12 86.5 37t36.5 64q0 23 -16.5 37t-49.5 14q-31 0 -49.5 -4.5t-44.5 -13.5h-3l27 115q20 6 59.5 12t82.5 6q120 0 164.5 -41.5
t44.5 -104.5z" />
    <glyph glyph-name="uni1EF8" unicode="&#x1ef8;" horiz-adv-x="1509" 
d="M224 0zM1715 1489l-759 -913l-133 -576h-386l129 558l-342 931h411l191 -583l445 583h444zM1490 1991q-28 -156 -113.5 -243.5t-216.5 -87.5q-60 0 -107.5 21t-101.5 57q-27 19 -48.5 28t-44.5 9q-47 0 -71 -31t-42 -91h-219q27 155 113.5 243t216.5 88q62 0 108.5 -20.5
t100.5 -57.5q29 -20 47.5 -28.5t45.5 -8.5q49 0 73 32t40 90h219z" />
    <glyph glyph-name="uni1EF9" unicode="&#x1ef9;" horiz-adv-x="1333" 
d="M59 0zM454 -412h-395l286 434l-185 1101h368l97 -736l428 736h380zM1316 1618q-28 -156 -113.5 -243.5t-216.5 -87.5q-60 0 -107.5 21t-101.5 57q-27 19 -48.5 28t-44.5 9q-47 0 -71 -31t-42 -91h-219q27 155 113.5 243t216.5 88q62 0 108.5 -20.5t100.5 -57.5
q29 -20 47.5 -28.5t45.5 -8.5q49 0 73 32t40 90h219z" />
    <glyph glyph-name="dong" unicode="&#x20ab;" horiz-adv-x="1432" 
d="M1421 1240l-287 -1240h-362l27 117q-52 -33 -91.5 -59.5t-87.5 -48.5q-45 -20 -88.5 -30t-104.5 -10q-163 0 -260.5 106t-97.5 301q0 160 51.5 300.5t141.5 248.5q88 105 208 167t251 62q92 0 160 -18.5t140 -57.5l37 162h-327l46 201h328l27 115h362l-27 -115h125
l-46 -201h-125zM971 861q-29 14 -76 25.5t-83 11.5q-86 0 -155 -38t-117 -104q-43 -59 -68 -150.5t-25 -176.5q0 -101 47 -147t143 -46q49 0 103.5 22t103.5 52zM39 -423l46 201h981l-46 -201h-981z" />
    <glyph glyph-name="glyph590" 
d="M1288 1283h-255l-134 219l-235 -219h-269l412 393h251zM1713 1676l-235 -266h-178l150 266h263z" />
    <glyph glyph-name="glyph591" 
d="M1288 1283h-255l-134 219l-235 -219h-269l412 393h251zM445 1410h-177l-180 266h261z" />
    <glyph glyph-name="glyph592" 
d="M1288 1283h-255l-134 219l-235 -219h-269l412 393h251zM1600 1728q0 -73 -55 -113.5t-117 -60.5l-14 -59h-178l26 112q50 12 86.5 37t36.5 64q0 23 -16.5 37t-49.5 14q-31 0 -49.5 -4.5t-44.5 -13.5h-3l27 115q20 6 59.5 12t82.5 6q120 0 164.5 -41.5t44.5 -104.5z" />
    <glyph glyph-name="glyph593" 
d="M1288 1283h-255l-134 219l-235 -219h-269l412 393h251zM1435 2049q-28 -156 -113.5 -243.5t-216.5 -87.5q-60 0 -107.5 21t-101.5 57q-28 19 -49 28t-44 9q-47 0 -71 -31t-42 -91h-219q27 155 113.5 243t216.5 88q62 0 108.5 -20.5t100.5 -57.5q29 -20 47.5 -28.5
t45.5 -8.5q49 0 73 32t40 90h219z" />
    <glyph glyph-name="glyph594" 
d="M1284 1636q-49 -192 -170 -286.5t-304 -94.5q-146 0 -230 64.5t-84 193.5q0 31 3 57.5t12 65.5h217q-6 -24 -8.5 -44.5t-2.5 -35.5q0 -57 28 -90.5t100 -33.5q87 0 138 57.5t72 146.5h229zM1199 1932l-235 -266h-178l150 266h263z" />
    <glyph glyph-name="glyph595" 
d="M1284 1636q-49 -192 -170 -286.5t-304 -94.5q-146 0 -230 64.5t-84 193.5q0 31 3 57.5t12 65.5h217q-6 -24 -8.5 -44.5t-2.5 -35.5q0 -57 28 -90.5t100 -33.5q87 0 138 57.5t72 146.5h229zM989 1666h-177l-180 266h261z" />
    <glyph glyph-name="glyph596" 
d="M1284 1636q-49 -192 -170 -286.5t-304 -94.5q-146 0 -230 64.5t-84 193.5q0 31 3 57.5t12 65.5h217q-6 -24 -8.5 -44.5t-2.5 -35.5q0 -57 28 -90.5t100 -33.5q87 0 138 57.5t72 146.5h229zM1149 1839q0 -73 -55 -113.5t-117 -60.5l-14 -59h-178l26 112q50 12 86.5 37
t36.5 64q0 23 -16.5 37t-49.5 14q-31 0 -49.5 -4.5t-44.5 -13.5h-3l27 115q20 6 59.5 12t82.5 6q120 0 164.5 -41.5t44.5 -104.5z" />
    <glyph glyph-name="glyph597" 
d="M1284 1636q-49 -192 -170 -286.5t-304 -94.5q-146 0 -230 64.5t-84 193.5q0 31 3 57.5t12 65.5h217q-6 -24 -8.5 -44.5t-2.5 -35.5q0 -57 28 -90.5t100 -33.5q87 0 138 57.5t72 146.5h229zM1435 2049q-28 -156 -113.5 -243.5t-216.5 -87.5q-60 0 -107.5 21t-101.5 57
q-28 19 -49 28t-44 9q-47 0 -71 -31t-42 -91h-219q27 155 113.5 243t216.5 88q62 0 108.5 -20.5t100.5 -57.5q29 -20 47.5 -28.5t45.5 -8.5q49 0 73 32t40 90h219z" />
    <glyph glyph-name="glyph598" 
d="M1130 1530q0 -73 -55 -113.5t-117 -60.5l-14 -59h-178l26 112q50 12 86.5 37t36.5 64q0 23 -16.5 37t-49.5 14q-31 0 -49.5 -4.5t-44.5 -13.5h-3l27 115q20 6 59.5 12t82.5 6q120 0 164.5 -41.5t44.5 -104.5z" />
    <glyph glyph-name="glyph599" 
d="M1324 1596h-255l-119 83l-141 -83h-260l276 173h257zM1380 2049q-18 -81 -85.5 -147t-189.5 -66q-37 0 -72.5 10t-70.5 26q-39 18 -58 24.5t-39 6.5q-29 0 -49.5 -16t-32.5 -51h-184q19 81 86 147t189 66q37 0 72.5 -9.5t71.5 -26.5q39 -18 57.5 -24.5t38.5 -6.5
q29 0 50 16t32 51h184z" />
    <glyph glyph-name="glyph600" 
d="M1350 1858q-20 -92 -126.5 -177t-292.5 -85q-178 0 -259.5 70.5t-81.5 152.5q0 7 0.5 19.5t1.5 19.5h212q-1 -8 -1.5 -16.5t-0.5 -14.5q0 -31 33.5 -58t113.5 -27q90 0 135.5 41t53.5 75h212zM1247 2049l-208 -206h-171l116 206h263z" />
    <glyph glyph-name="glyph601" 
d="M1350 1858q-20 -92 -126.5 -177t-292.5 -85q-178 0 -259.5 70.5t-81.5 152.5q0 7 0.5 19.5t1.5 19.5h212q-1 -8 -1.5 -16.5t-0.5 -14.5q0 -31 33.5 -58t113.5 -27q90 0 135.5 41t53.5 75h212zM1066 1843h-169l-164 206h261z" />
    <glyph glyph-name="glyph602" 
d="M1350 1858q-20 -92 -126.5 -177t-292.5 -85q-178 0 -259.5 70.5t-81.5 152.5q0 7 0.5 19.5t1.5 19.5h212q-1 -8 -1.5 -16.5t-0.5 -14.5q0 -31 33.5 -58t113.5 -27q90 0 135.5 41t53.5 75h212zM1127 1948q0 -47 -34.5 -74.5t-83.5 -42.5l-11 -47h-107l19 84
q37 7 59.5 23.5t22.5 35.5q0 16 -11.5 22.5t-32.5 6.5q-20 0 -36.5 -4t-31.5 -9h-2l21 93q15 5 41 9t53 4q72 0 103 -28t31 -73z" />
    <glyph glyph-name="glyph603" 
d="M1344 1798q-29 -74 -127.5 -138t-284.5 -64q-198 0 -273 56t-75 121q0 6 0.5 11.5t1.5 13.5h212q-1 -5 -1.5 -10t-0.5 -8q0 -21 29.5 -34.5t125.5 -13.5q85 0 128.5 21t52.5 45h212zM1380 2049q-18 -81 -85 -142t-189 -61q-37 0 -72.5 10t-70.5 26q-39 18 -58 24.5
t-39 6.5q-29 0 -49.5 -16t-32.5 -51h-184q19 81 85.5 142t188.5 61q37 0 72.5 -9.5t71.5 -26.5q39 -18 57.5 -24.5t38.5 -6.5q29 0 50 16t32 51h184z" />
    <glyph glyph-name="glyph604" 
d="M1347 1638h-249l-131 171l-186 -171h-267l356 331h231zM1754 1903q0 -73 -55 -113.5t-117 -60.5l-14 -59h-178l26 112q50 12 86.5 37t36.5 64q0 23 -16.5 37t-49.5 14q-31 0 -49.5 -4.5t-44.5 -13.5h-3l27 115q20 6 59.5 12t82.5 6q120 0 164.5 -41.5t44.5 -104.5z" />
    <glyph glyph-name=".ttfautohint" 
d="M0 0z" />
  </font>
</defs>
</svg>
